<svg xmlns="http://www.w3.org/2000/svg" width="64.007" height="50.66" viewBox="0 0 64.007 50.66">
  <g id="free-icon-search-file-7089308" transform="translate(-1.003 -7.67)">
    <path id="Контур_15602" data-name="Контур 15602" d="M18.33,29a1.33,1.33,0,0,0,2.66,0,6.675,6.675,0,0,1,6.67-6.67,1.33,1.33,0,0,0,0-2.66A9.34,9.34,0,0,0,18.33,29Z" fill="#009846"/>
    <path id="Контур_15603" data-name="Контур 15603" d="M64.61,21.39,51.27,8.06a1.576,1.576,0,0,0-.94-.39H29a4,4,0,0,0-4,4v2.92a14.642,14.642,0,0,0-8.59,23.79l-.99.99-1.89-1.89a1.339,1.339,0,0,0-1.89,0L2.56,46.56A5.332,5.332,0,1,0,10.1,54.1l9.08-9.08a1.34,1.34,0,0,0,0-1.89l-1.89-1.89.99-.99a14.664,14.664,0,1,0,9.38-25.93V11.65a1.329,1.329,0,0,1,1.33-1.33h20v9.33a4,4,0,0,0,4,4h9.33V54.32a1.329,1.329,0,0,1-1.33,1.33H29a1.329,1.329,0,0,1-1.33-1.33V47.6a1.33,1.33,0,1,0-2.66,0v6.73a4,4,0,0,0,4,4h32a4,4,0,0,0,4-4v-32a1.5,1.5,0,0,0-.4-.94ZM8.22,52.22a2.724,2.724,0,0,1-3.77,0,2.68,2.68,0,0,1,0-3.77l8.13-8.13,3.77,3.77ZM36.15,20.51A12.011,12.011,0,1,1,27.67,17a12.011,12.011,0,0,1,8.48,3.51ZM53,21a1.329,1.329,0,0,1-1.33-1.33V12.22L60.44,21Z" fill="#009846"/>
    <path id="Контур_15604" data-name="Контур 15604" d="M46.33,29h12a1.33,1.33,0,1,0,0-2.66h-12a1.33,1.33,0,1,0,0,2.66Z" fill="#009846"/>
    <path id="Контур_15605" data-name="Контур 15605" d="M46.33,35.67h12a1.33,1.33,0,0,0,0-2.66h-12A1.315,1.315,0,0,0,45,34.33a1.332,1.332,0,0,0,1.33,1.34Z" fill="#009846"/>
    <path id="Контур_15606" data-name="Контур 15606" d="M42.33,41a1.329,1.329,0,0,0,1.33,1.33H58.33a1.33,1.33,0,1,0,0-2.66H43.66A1.329,1.329,0,0,0,42.33,41Z" fill="#009846"/>
    <path id="Контур_15607" data-name="Контур 15607" d="M30.33,47.67A1.329,1.329,0,0,0,31.66,49H58.33a1.33,1.33,0,0,0,0-2.66H31.66a1.323,1.323,0,0,0-1.33,1.33Z" fill="#009846"/>
  </g>
</svg>
