<?xml version="1.0"?>
<svg xmlns="http://www.w3.org/2000/svg" height="512px" viewBox="0 0 480 480" width="512px"><g><path d="m480 232v-48c0-4.417969-3.582031-8-8-8h-208v-128c4.417969 0 8-3.582031 8-8v-32c0-4.417969-3.582031-8-8-8h-256c-4.417969 0-8 3.582031-8 8v32c0 4.417969 3.582031 8 8 8v384c-4.417969 0-8 3.582031-8 8v32c0 4.417969 3.582031 8 8 8h464c4.417969 0 8-3.582031 8-8v-32c0-4.417969-3.582031-8-8-8v-192c4.417969 0 8-3.582031 8-8zm-16-40v32h-200v-32zm-448-176h240v16h-240zm8 32h224v384h-64v-120c-.027344-22.082031-17.917969-39.972656-40-40h-16c-22.082031.027344-39.972656 17.917969-40 40v120h-64zm144 384h-64v-120c0-13.253906 10.746094-24 24-24h16c13.253906 0 24 10.746094 24 24zm296 32h-448v-16h448zm-48-176h-112v-16h112zm-112 16h112v16h-112zm0 32h112v16h-112zm0 32h112v16h-112zm0 32h112v32h-112zm152 32h-24v-168c0-4.417969-3.582031-8-8-8h-128c-4.417969 0-8 3.582031-8 8v168h-24v-192h192zm0 0" data-original="#000000" class="active-path" data-old_color="#000000" fill="#009846"/><path d="m192 208c4.417969 0 8-3.582031 8-8v-112c0-4.417969-3.582031-8-8-8h-112c-4.417969 0-8 3.582031-8 8v112c0 4.417969 3.582031 8 8 8zm-104-56h40v40h-40zm56 40v-40h40v40zm40-56h-40v-40h40zm-56-40v40h-40v-40zm0 0" data-original="#000000" class="active-path" data-old_color="#000000" fill="#009846"/><path d="m144 360h16v16h-16zm0 0" data-original="#000000" class="active-path" data-old_color="#000000" fill="#009846"/></g> </svg>
