<svg xmlns="http://www.w3.org/2000/svg" width="569.98" height="569.999" viewBox="0 0 569.98 569.999">
  <g id="customer-support" transform="translate(-0.273 0)">
    <path id="Контур_15614" data-name="Контур 15614" d="M1.527,52.246l37.984,66.469a9.488,9.488,0,0,0,5.934,4.5l35.438,8.859L202.426,253.617l13.43-13.426L92.41,116.75A9.471,9.471,0,0,0,88,114.25l-34.051-8.543L21.613,49.082,49.34,21.355l56.648,32.371,8.547,34.051a9.469,9.469,0,0,0,2.5,4.414L240.477,215.637l13.426-13.43L132.359,80.664,123.5,45.246A9.511,9.511,0,0,0,119,39.3L52.527,1.32A9.5,9.5,0,0,0,41.133,2.848L3.152,40.832A9.495,9.495,0,0,0,1.527,52.246Zm0,0" fill="#009846"/>
    <path id="Контур_15615" data-name="Контур 15615" d="M396.313,187.145,187.41,396.051l-13.43-13.43,208.906-208.9Zm0,0" fill="#009846"/>
    <path id="Контур_15616" data-name="Контур 15616" d="M150.848,403.441a9.493,9.493,0,0,0-8.141-4.605H85.734a9.486,9.486,0,0,0-8.137,4.605L49.109,450.918a9.495,9.495,0,0,0,0,9.781L77.6,508.176a9.495,9.495,0,0,0,8.137,4.605h56.973a9.5,9.5,0,0,0,8.141-4.605L179.332,460.7a9.495,9.495,0,0,0,0-9.781Zm-13.512,90.348H91.109L68.32,455.809l22.789-37.984h46.227l22.789,37.984Zm0,0" fill="#009846"/>
    <path id="Контур_15617" data-name="Контур 15617" d="M456.063,227.914A113.553,113.553,0,0,0,566.516,86.43,9.492,9.492,0,0,0,550.594,82l-59.109,59.07-46.9-15.629L428.945,78.559l59.109-59.121A9.5,9.5,0,0,0,483.6,3.5,113.6,113.6,0,0,0,342.117,113.965a111.454,111.454,0,0,0,2.309,22.25L136.469,344.168a112.023,112.023,0,0,0-22.246-2.309A113.947,113.947,0,1,0,228.168,455.809a111.742,111.742,0,0,0-2.309-22.25l49.785-49.785,21.773,21.773a9.5,9.5,0,0,0,13.43,0l4.746-4.75a10.649,10.649,0,0,1,15.078,15.043l-.02.02-4.746,4.746a9.494,9.494,0,0,0,0,13.426L439.18,547.3A76.638,76.638,0,1,0,548.051,439.414c-.16-.164-.324-.328-.488-.492L434.289,325.652a9.494,9.494,0,0,0-13.426,0l-4.746,4.746a10.649,10.649,0,0,1-15.082-15.039c.008-.008.016-.012.02-.02l4.75-4.75a9.494,9.494,0,0,0,0-13.426l-21.773-21.773,49.785-49.785A111.733,111.733,0,0,0,456.063,227.914Zm37.309,322.852a57.7,57.7,0,0,1-20.2-3.684l74.16-74.164a57.585,57.585,0,0,1-53.965,77.848ZM385.8,303.973A29.634,29.634,0,0,0,427.574,345.7L534.137,452.352c1.156,1.16,2.238,2.383,3.285,3.625l-81.187,81.188c-1.246-1.043-2.469-2.125-3.629-3.285L345.961,427.227A29.637,29.637,0,0,0,304.18,385.5l-15.191-15.191L370.6,288.816Zm38.344-95.5L208.73,423.836a9.51,9.51,0,0,0-2.508,9.023A95.588,95.588,0,1,1,137.172,363.8a9.58,9.58,0,0,0,9.023-2.5L361.555,145.93a9.49,9.49,0,0,0,2.5-9.02A94.495,94.495,0,0,1,461.457,19.164l-50.09,50.109a9.487,9.487,0,0,0-2.3,9.711l18.988,56.977a9.5,9.5,0,0,0,6.012,6l56.977,18.992a9.5,9.5,0,0,0,9.711-2.289l50.09-50.09c.113,1.813.172,3.605.172,5.391a94.467,94.467,0,0,1-117.906,92,9.5,9.5,0,0,0-9.023,2.5h.051Zm0,0" fill="#009846"/>
    <path id="Контур_15618" data-name="Контур 15618" d="M491.273,477.578l-13.43,13.43-94.953-94.953,13.426-13.43Zm0,0" fill="#009846"/>
  </g>
</svg>
