<svg xmlns="http://www.w3.org/2000/svg" width="471.056" height="512" viewBox="0 0 471.056 512">
  <g id="wheelchair" transform="translate(-20.472)">
    <g id="Сгруппировать_10932" data-name="Сгруппировать 10932">
      <g id="Сгруппировать_10931" data-name="Сгруппировать 10931">
        <path id="Контур_15619" data-name="Контур 15619" d="M343.4,380.58a20.377,20.377,0,0,0-26.911,10.629A132.79,132.79,0,0,1,194.552,471.04c-73.4,0-133.12-59.72-133.12-133.12A133.1,133.1,0,0,1,128.32,222.577a20.47,20.47,0,1,0-20.3-35.554,174.064,174.064,0,0,0-87.552,150.9c0,95.99,78.09,174.08,174.08,174.08a173.678,173.678,0,0,0,159.5-104.489A20.456,20.456,0,0,0,343.4,380.58Z" fill="#009846"/>
        <path id="Контур_15620" data-name="Контур 15620" d="M490.058,402a20.439,20.439,0,0,0-26.624-11.428L432.8,402.842l-44.585-142.7a20.509,20.509,0,0,0-19.579-14.377H222.364l-6.369-40.96h80.957a20.48,20.48,0,1,0,0-40.96H209.646L199.058,95.621a51.188,51.188,0,1,0-40.817,4.014l26.317,169.738a20.477,20.477,0,0,0,20.234,17.347H353.579l46.694,149.463a20.564,20.564,0,0,0,10.773,12.39,20.542,20.542,0,0,0,16.4.533l51.2-20.48A20.478,20.478,0,0,0,490.058,402Z" fill="#009846"/>
      </g>
    </g>
  </g>
</svg>
