<svg xmlns="http://www.w3.org/2000/svg" width="491.087" height="512" viewBox="0 0 491.087 512">
  <g id="eco" transform="translate(-0.5 0)">
    <path id="Контур_15621" data-name="Контур 15621" d="M213.422,301.109a357.874,357.874,0,0,0,42.9-2.363,15,15,0,0,0,12.93-12.93c.133-1.031.8-6.391,1.395-14.84,2.57.051,5.219.082,7.961.082a363.119,363.119,0,0,0,63.063-5.266c41.938-7.492,74.563-22.656,96.973-45.066C503.629,155.738,490.758,20.543,490.18,14.82A15,15,0,0,0,476.77,1.406c-5.727-.578-140.922-13.449-205.91,51.539C257.395,66.41,246.547,83.613,238.4,104.293a131.109,131.109,0,0,0-17.172-21.348C156.238,17.953,21.039,30.824,15.316,31.4A15,15,0,0,0,1.906,44.816c-.578,5.723-13.449,140.918,51.539,205.906C96.18,293.457,167.668,301.109,213.422,301.109Zm-72.09-109.07H50.117C34.293,155.605,30.832,111.148,30.6,81.309Zm41.316,77.727c-61.227-5.238-92.52-24.781-107.992-40.254a97.059,97.059,0,0,1-6.719-7.477H171.328L220.27,270.98A370.046,370.046,0,0,1,182.648,269.766Zm234.781-70.25C380.043,236.9,311.113,241.66,271.8,240.992l91.949-91.949H446.91C438.176,174.281,426.984,189.961,417.43,199.516ZM459.492,88.922c-1.133,10.965-2.68,20.969-4.527,30.125H393.75l67.77-67.77C461.438,62.215,460.914,75.125,459.492,88.922Zm-129.949,51.91V49.617C365.98,33.8,410.434,30.332,440.273,30.1ZM292.07,74.156a97.793,97.793,0,0,1,7.477-6.719V170.828l-30.184,30.188a275.535,275.535,0,0,0-11.906-56.355C264.3,114.023,275.922,90.3,292.07,74.156Zm-64.586,75.469a14.152,14.152,0,0,0,.648,1.832c11.8,33.715,13.773,71.961,13.324,98.289l-91.914-91.914V74.672c25.238,8.738,40.918,19.926,50.473,29.48C212.441,116.578,221.266,132.473,227.484,149.625ZM119.547,66.617v61.215L51.781,60.066c10.938.082,23.844.6,37.641,2.027C100.387,63.227,110.391,64.77,119.547,66.617Zm0,0" fill="#009846"/>
    <path id="Контур_15622" data-name="Контур 15622" d="M143.055,357.664c6.5,0,10.25-6.75,10.25-14.5,0-6.75-3.25-14-10.25-14H54.063c-7.25,0-14.246,3.5-14.246,10.25V501.648c0,6.75,7,10.25,14.246,10.25h88.992c7,0,10.25-7.25,10.25-14,0-7.746-3.75-14.5-10.25-14.5H72.313V433.156h38c7,0,10.25-6.75,10.25-12.5,0-6.75-3.75-13-10.25-13h-38v-50Zm0,0" fill="#009846"/>
    <path id="Контур_15623" data-name="Контур 15623" d="M241.8,356.262c23.746,0,25.5,17,26,24.75.25,7.5,7,10.25,16.25,10.25,11,0,16.246-3,16.246-16,0-29-24.746-47.5-59.492-47.5-31.5,0-57.746,15.5-57.746,57.246v69.742c0,41.746,26,57.246,57.5,57.246,35,0,59.742-19.25,59.742-49.5,0-12.75-5.246-16-16.5-16-8.5,0-15.5,2.5-16,10.25-.75,10.5-2.75,26.746-25.5,26.746-17.25,0-26.75-9.246-26.75-28.746V385.012C215.547,365.512,225.047,356.262,241.8,356.262Zm0,0" fill="#009846"/>
    <path id="Контур_15624" data-name="Контур 15624" d="M391.281,327.766c-33,0-58.5,15.5-58.5,57.246v69.742c0,41.746,25.5,57.246,58.5,57.246s58.742-15.5,58.742-57.246V385.012C450.023,343.266,424.277,327.766,391.281,327.766Zm26.246,126.988c0,19.75-10,28.746-26.246,28.746-16.5,0-26-9-26-28.746V385.012c0-19.75,9.5-28.75,26-28.75,16.246,0,26.246,9,26.246,28.75Zm0,0" fill="#009846"/>
  </g>
</svg>
