<svg xmlns="http://www.w3.org/2000/svg" width="451.751" height="512" viewBox="0 0 451.751 512">
  <g id="toilet" transform="translate(-30.124)">
    <path id="Контур_15578" data-name="Контур 15578" d="M448.641,163.476a60.188,60.188,0,1,0-84.032,0,75.236,75.236,0,0,0-33.234,62.4V316.25a15,15,0,0,0,15,15H361.5v105.5a15,15,0,0,0,15,15h60.25a15,15,0,0,0,15-15V331.25h15.125a15,15,0,0,0,15-15V225.875A75.236,75.236,0,0,0,448.641,163.476Zm-72.2-43.038a30.188,30.188,0,1,1,30.188,30.188A30.222,30.222,0,0,1,376.438,120.438ZM451.875,301.25H436.75a15,15,0,0,0-15,15v105.5H391.5V316.25a15,15,0,0,0-15-15H361.375V225.875a45.25,45.25,0,0,1,90.5,0Z" fill="#009846"/>
    <path id="Контур_15579" data-name="Контур 15579" d="M190.625,285.062V225.874a75.236,75.236,0,0,0-33.234-62.4,60.188,60.188,0,1,0-84.032,0,75.233,75.233,0,0,0-33.234,62.4v59.188l-9.851,69.2a15,15,0,0,0,14.85,17.114H70.25v65.375a15,15,0,0,0,15,15H145.5a15,15,0,0,0,15-15V371.374h25.125a15,15,0,0,0,14.85-17.114ZM85.188,120.438a30.188,30.188,0,1,1,30.188,30.188A30.222,30.222,0,0,1,85.188,120.438ZM145.5,341.375a15,15,0,0,0-15,15V421.75H100.25V356.375a15,15,0,0,0-15-15H62.411l7.564-53.136a14.953,14.953,0,0,0,.149-2.114v-60.25a45.25,45.25,0,1,1,90.5,0v60.25a15.1,15.1,0,0,0,.149,2.114l7.564,53.136Z" fill="#009846"/>
    <path id="Контур_15580" data-name="Контур 15580" d="M261,0a15,15,0,0,0-15,15V497a15,15,0,0,0,30,0V15A15,15,0,0,0,261,0Z" fill="#009846"/>
  </g>
</svg>
