<svg xmlns="http://www.w3.org/2000/svg" width="137.669" height="137.668" viewBox="0 0 137.669 137.668">
  <g id="free-icon-file-upload-2799650" transform="translate(0 0)">
    <g id="Сгруппировать_10925" data-name="Сгруппировать 10925" transform="translate(40.153 40.152)">
      <path id="Контур_15608" data-name="Контур 15608" d="M54.324,29.945H17.038A10.049,10.049,0,0,1,7,19.906V11.3a4.3,4.3,0,1,1,8.6,0v8.6a1.435,1.435,0,0,0,1.434,1.434H54.324a1.435,1.435,0,0,0,1.434-1.434V11.3a4.3,4.3,0,0,1,8.6,0v8.6A10.049,10.049,0,0,1,54.324,29.945Z" transform="translate(-7 -7)" fill="#009846"/>
    </g>
    <g id="Сгруппировать_10926" data-name="Сгруппировать 10926" transform="translate(64.532 1.433)">
      <path id="Контур_15609" data-name="Контур 15609" d="M15.552,44.706a4.3,4.3,0,0,1-4.3-4.3V4.552a4.3,4.3,0,1,1,8.6,0V40.4A4.3,4.3,0,0,1,15.552,44.706Z" transform="translate(-11.25 -0.25)" fill="#009846"/>
    </g>
    <g id="Сгруппировать_10927" data-name="Сгруппировать 10927" transform="translate(51.622 0)">
      <path id="Контур_15610" data-name="Контур 15610" d="M39.119,21.51a4.268,4.268,0,0,1-3.04-1.262l-9.866-9.861-9.866,9.866a4.3,4.3,0,0,1-6.086-6.086L23.166,1.261a4.3,4.3,0,0,1,6.086,0L42.159,14.167a4.3,4.3,0,0,1-3.04,7.342Z" transform="translate(-8.999 0)" fill="#009846"/>
    </g>
    <g id="Сгруппировать_10928" data-name="Сгруппировать 10928" transform="translate(0 22.944)">
      <path id="Контур_15611" data-name="Контур 15611" d="M127.631,101.516H10.038A10.049,10.049,0,0,1,0,91.477V14.038A10.049,10.049,0,0,1,10.038,4H30.115a4.3,4.3,0,0,1,0,8.6H10.038A1.435,1.435,0,0,0,8.6,14.038V91.477a1.435,1.435,0,0,0,1.434,1.434H127.631a1.435,1.435,0,0,0,1.434-1.434V14.038a1.435,1.435,0,0,0-1.434-1.434H107.554a4.3,4.3,0,1,1,0-8.6h20.077a10.049,10.049,0,0,1,10.038,10.038V91.477A10.049,10.049,0,0,1,127.631,101.516Z" transform="translate(0 -4)" fill="#009846"/>
    </g>
    <g id="Сгруппировать_10929" data-name="Сгруппировать 10929" transform="translate(0 91.778)">
      <path id="Контур_15612" data-name="Контур 15612" d="M133.367,24.6H4.3a4.3,4.3,0,1,1,0-8.6H133.367a4.3,4.3,0,0,1,0,8.6Z" transform="translate(0 -16)" fill="#009846"/>
    </g>
    <g id="Сгруппировать_10930" data-name="Сгруппировать 10930" transform="translate(45.889 111.852)">
      <path id="Контур_15613" data-name="Контур 15613" d="M49.588,45.315H12.3a4.3,4.3,0,0,1-3.04-7.342C15.234,32,16.519,23.328,16.53,23.248a4.3,4.3,0,0,1,8.53,1.119,38.575,38.575,0,0,1-4.268,12.344H41A39.463,39.463,0,0,1,36.722,24.4a4.3,4.3,0,0,1,8.524-1.187c.04.258,1.331,8.426,6.792,14.266a4.3,4.3,0,0,1-2.449,7.841Z" transform="translate(-8 -19.5)" fill="#009846"/>
    </g>
  </g>
</svg>
