<svg xmlns="http://www.w3.org/2000/svg" width="512" height="485.376" viewBox="0 0 512 485.376">
  <g id="free-icon-couple-437544" transform="translate(0 -13.312)">
    <g id="Сгруппировать_10966" data-name="Сгруппировать 10966">
      <g id="Сгруппировать_10965" data-name="Сгруппировать 10965">
        <path id="Контур_15594" data-name="Контур 15594" d="M246.334,271.007,192.5,254.857v-21.8a87.344,87.344,0,0,0,35.266-63.8,25.173,25.173,0,0,0,9.109-43.31V74.062a42.965,42.965,0,0,0-19.008-35.5A33.885,33.885,0,0,0,185,13.312H114A69.7,69.7,0,0,0,44.375,82.937v43a25.173,25.173,0,0,0,9.109,43.31A87.34,87.34,0,0,0,88.75,233.052v21.8L24.319,274.186A33.915,33.915,0,0,0,0,306.872v86.69a7.5,7.5,0,0,0,7.5,7.5H8.875v90.125a7.5,7.5,0,0,0,15,0V401.062H53.25v90.125a7.5,7.5,0,0,0,15,0v-142a7.493,7.493,0,0,0-.792-3.354l-17.75-35.5a7.5,7.5,0,1,0-13.416,6.708L53.25,350.958v35.1H15v-79.19a19.009,19.009,0,0,1,13.63-18.319l26.933-8.08a87.381,87.381,0,0,0,170.108-.006l16.352,4.907a7.5,7.5,0,0,0,4.311-14.367ZM68.25,162.812a7.5,7.5,0,0,0-7.5-7.5,10.261,10.261,0,0,1-10.25-10.25,10.133,10.133,0,0,1,5.147-8.806c.166-.1.317-.211.474-.319a10.229,10.229,0,0,1,4.629-1.125H72.1a16.354,16.354,0,0,0,15.535-11.2l5.167-15.5c17.632-.389,73.2-2.857,104.424-18.47a7.5,7.5,0,0,0-6.708-13.416C157.03,92.974,88.067,93.187,87.374,93.187a7.5,7.5,0,0,0-7.114,5.128l-6.852,20.557a1.374,1.374,0,0,1-1.305.94H60.75c-.459,0-.917.02-1.375.045V82.937A54.687,54.687,0,0,1,114,28.312h71a18.982,18.982,0,0,1,18.8,16.121,7.5,7.5,0,0,0,3.723,5.357,28,28,0,0,1,14.355,24.272v55.712a7.5,7.5,0,0,0,3.728,6.482,10.133,10.133,0,0,1,5.147,8.806,10.261,10.261,0,0,1-10.25,10.25,7.5,7.5,0,0,0-7.5,7.5,72.375,72.375,0,1,1-144.749,0ZM177.5,242.005v18.432a36.874,36.874,0,0,1-73.748.1c0-.036,0-.072,0-.107V242.005a87.186,87.186,0,0,0,73.75,0Zm10.313,73.31A72.377,72.377,0,0,1,69.976,276.15l19.715-5.914a51.866,51.866,0,0,0,101.868,0l19.714,5.915A72.439,72.439,0,0,1,187.813,315.315Z" fill="#009846"/>
      </g>
    </g>
    <g id="Сгруппировать_10968" data-name="Сгруппировать 10968">
      <g id="Сгруппировать_10967" data-name="Сгруппировать 10967">
        <path id="Контур_15595" data-name="Контур 15595" d="M163.1,183.614a7.5,7.5,0,0,0-10.549,1.1,14.706,14.706,0,0,1-23.85,0,7.5,7.5,0,1,0-11.649,9.449,29.676,29.676,0,0,0,47.148,0A7.5,7.5,0,0,0,163.1,183.614Z" fill="#009846"/>
      </g>
    </g>
    <g id="Сгруппировать_10970" data-name="Сгруппировать 10970">
      <g id="Сгруппировать_10969" data-name="Сгруппировать 10969">
        <path id="Контур_15596" data-name="Контур 15596" d="M105.125,137.562a7.5,7.5,0,0,0-7.5,7.5v8.875a7.5,7.5,0,1,0,15,0v-8.875A7.5,7.5,0,0,0,105.125,137.562Z" fill="#009846"/>
      </g>
    </g>
    <g id="Сгруппировать_10972" data-name="Сгруппировать 10972">
      <g id="Сгруппировать_10971" data-name="Сгруппировать 10971">
        <path id="Контур_15597" data-name="Контур 15597" d="M176.125,137.562a7.5,7.5,0,0,0-7.5,7.5v8.875a7.5,7.5,0,1,0,15,0v-8.875A7.5,7.5,0,0,0,176.125,137.562Z" fill="#009846"/>
      </g>
    </g>
    <g id="Сгруппировать_10974" data-name="Сгруппировать 10974">
      <g id="Сгруппировать_10973" data-name="Сгруппировать 10973">
        <path id="Контур_15598" data-name="Контур 15598" d="M402.725,227.987a7.5,7.5,0,0,0-10.549,1.1,14.706,14.706,0,0,1-23.85,0,7.5,7.5,0,0,0-11.649,9.449,29.676,29.676,0,0,0,47.148,0A7.5,7.5,0,0,0,402.725,227.987Z" fill="#009846"/>
      </g>
    </g>
    <g id="Сгруппировать_10976" data-name="Сгруппировать 10976">
      <g id="Сгруппировать_10975" data-name="Сгруппировать 10975">
        <path id="Контур_15599" data-name="Контур 15599" d="M344.75,181.937a7.5,7.5,0,0,0-7.5,7.5v8.875a7.5,7.5,0,1,0,15,0v-8.875A7.5,7.5,0,0,0,344.75,181.937Z" fill="#009846"/>
      </g>
    </g>
    <g id="Сгруппировать_10978" data-name="Сгруппировать 10978">
      <g id="Сгруппировать_10977" data-name="Сгруппировать 10977">
        <path id="Контур_15600" data-name="Контур 15600" d="M415.75,181.937a7.5,7.5,0,0,0-7.5,7.5v8.875a7.5,7.5,0,1,0,15,0v-8.875A7.5,7.5,0,0,0,415.75,181.937Z" fill="#009846"/>
      </g>
    </g>
    <g id="Сгруппировать_10980" data-name="Сгруппировать 10980">
      <g id="Сгруппировать_10979" data-name="Сгруппировать 10979">
        <path id="Контур_15601" data-name="Контур 15601" d="M490.549,335.529l-60.856-24.343a10.391,10.391,0,0,1-1.475-.733c41.218-8.3,60.521-16.1,61.375-16.451a7.5,7.5,0,0,0,4.6-7.871c-.088-.706-8.817-71.242-8.817-132.2a105.125,105.125,0,1,0-210.25,0c0,60.924-8.729,131.489-8.817,132.195a7.5,7.5,0,0,0,4.6,7.871c.854.35,20.157,8.15,61.375,16.451a10.391,10.391,0,0,1-1.475.733L269.952,335.53A33.961,33.961,0,0,0,248.5,367.214v18.849H228v-35.1l16.958-33.917a7.5,7.5,0,1,0-13.416-6.708l-17.75,35.5a7.5,7.5,0,0,0-.792,3.354v142a7.5,7.5,0,0,0,15,0V401.063h20.5v10.254a7.5,7.5,0,0,0,7.5,7.5h1.375v72.371a7.5,7.5,0,0,0,15,0V418.813h20.5v72.375a7.5,7.5,0,0,0,15,0V393.563a7.5,7.5,0,0,0-15,0v10.25H263.5v-36.6a19.033,19.033,0,0,1,12.022-17.757l29.917-11.967a78.509,78.509,0,0,0,149.622,0l29.917,11.967A19.034,19.034,0,0,1,497,367.213v36.6H467.625v-10.25a7.5,7.5,0,0,0-15,0v97.625a7.5,7.5,0,0,0,15,0V418.813h20.5v72.375a7.5,7.5,0,0,0,15,0V418.813H504.5a7.5,7.5,0,0,0,7.5-7.5v-44.1A33.962,33.962,0,0,0,490.549,335.529ZM290.124,153.937a90.126,90.126,0,0,1,180.251,0c0,51.49,6.124,109.623,8.231,128.1-8.309,2.823-26.493,8.386-55.356,14.114V283.237a86.614,86.614,0,0,0,11.89-8.065,87.173,87.173,0,0,0,32.485-67.985c0-43.685-31.643-49.967-62.243-56.042-19.57-3.885-39.806-7.9-55.947-20.815a7.508,7.508,0,0,0-11.389,2.493,87.947,87.947,0,0,1-11.351,16.41c-6.019,6.822-15.472,14.954-26.321,14.954a25.084,25.084,0,0,0-10.363,2.234C290.084,162.234,290.124,158.064,290.124,153.937ZM380.25,279.563a71.562,71.562,0,0,1-45.461-16.057,72.162,72.162,0,0,1-26.914-56.319,7.5,7.5,0,0,0-7.5-7.5,10.25,10.25,0,0,1,0-20.5c22.743,0,39.239-20.594,46.688-32.116,17.491,11.261,37.5,15.233,55.4,18.788,32.963,6.544,50.164,11.354,50.164,41.329a72.161,72.161,0,0,1-26.914,56.319A71.56,71.56,0,0,1,380.25,279.563Zm-98.356,2.472c1.327-11.638,4.248-39.011,6.228-70.545a25.124,25.124,0,0,0,4.988,2.132,87.223,87.223,0,0,0,44.14,69.615v12.912C308.382,290.42,290.2,284.857,281.894,282.035Zm98.356,95.153A63.461,63.461,0,0,1,319.4,331.9l16.973-6.789a25.13,25.13,0,0,0,15.873-23.444V289.926a86.838,86.838,0,0,0,56,0v11.745a25.129,25.129,0,0,0,15.872,23.444L441.1,331.9A63.463,63.463,0,0,1,380.25,377.188Z" fill="#009846"/>
      </g>
    </g>
  </g>
</svg>
