<svg xmlns="http://www.w3.org/2000/svg" width="512.001" height="391.758" viewBox="0 0 512.001 391.758">
  <g id="team" transform="translate(0 -60.121)">
    <g id="Сгруппировать_10926" data-name="Сгруппировать 10926">
      <g id="Сгруппировать_10925" data-name="Сгруппировать 10925">
        <path id="Контур_15581" data-name="Контур 15581" d="M175.839,404.814a7.5,7.5,0,0,0-7.5,7.5v32.064a7.5,7.5,0,0,0,15,0V412.314A7.5,7.5,0,0,0,175.839,404.814Z" fill="#009846"/>
      </g>
    </g>
    <g id="Сгруппировать_10928" data-name="Сгруппировать 10928">
      <g id="Сгруппировать_10927" data-name="Сгруппировать 10927">
        <path id="Контур_15582" data-name="Контур 15582" d="M336.161,404.814a7.5,7.5,0,0,0-7.5,7.5v32.064a7.5,7.5,0,1,0,15,0V412.314A7.5,7.5,0,0,0,336.161,404.814Z" fill="#009846"/>
      </g>
    </g>
    <g id="Сгруппировать_10930" data-name="Сгруппировать 10930">
      <g id="Сгруппировать_10929" data-name="Сгруппировать 10929">
        <path id="Контур_15583" data-name="Контур 15583" d="M115.063,245.284c-17.416-8.708-50.069-8.808-51.451-8.808a7.5,7.5,0,0,0,0,15c8.438.005,32.923,1.313,44.745,7.224a7.5,7.5,0,0,0,6.708-13.416Z" fill="#009846"/>
      </g>
    </g>
    <g id="Сгруппировать_10932" data-name="Сгруппировать 10932">
      <g id="Сгруппировать_10931" data-name="Сгруппировать 10931">
        <path id="Контур_15584" data-name="Контур 15584" d="M39.564,388.782a7.5,7.5,0,0,0-7.5,7.5v48.1a7.5,7.5,0,0,0,15,0v-48.1A7.5,7.5,0,0,0,39.564,388.782Z" fill="#009846"/>
      </g>
    </g>
    <g id="Сгруппировать_10934" data-name="Сгруппировать 10934">
      <g id="Сгруппировать_10933" data-name="Сгруппировать 10933">
        <path id="Контур_15585" data-name="Контур 15585" d="M494.56,360.772l-30.372-15.184a.515.515,0,0,1-.286-.462l0-15.265a55.386,55.386,0,0,0,23.5-38.085,63.424,63.424,0,0,0-16.856-82.6,32.187,32.187,0,0,0,1.371-9.286c0-19.606-17.749-35.557-39.564-35.557s-39.564,15.951-39.564,35.557a32.172,32.172,0,0,0,1.366,9.289A63.936,63.936,0,0,0,373.343,236.3c-1.859-18.269-3.8-39.866-5.652-65.024-2.45-33.194-14.388-61.226-34.522-81.064C313.188,70.527,286.5,60.121,256,60.121s-57.188,10.406-77.167,30.093c-20.134,19.839-32.072,47.871-34.522,81.064-.651,8.813-1.311,17.166-1.974,25.117H71.629a47.635,47.635,0,0,0-47.581,47.581v.447a39.761,39.761,0,0,0,4.177,17.694l3.839,7.679v12.245a58.5,58.5,0,0,0,24.048,47.3v10.832a3.141,3.141,0,0,1-2.268,3.007l-30.963,8.847A31.68,31.68,0,0,0,0,382.358v62.021a7.5,7.5,0,0,0,15,0V382.358a16.619,16.619,0,0,1,12-15.912L57.966,357.6a17.811,17.811,0,0,0,3.188-1.266L80.161,375.34v69.039a7.5,7.5,0,0,0,15,0V375.34L114.3,356.2a41.06,41.06,0,0,0,6.975,2.519l7.6,2.172a39.577,39.577,0,0,0-16.653,32.232v51.254a7.5,7.5,0,1,0,15,0V393.123a24.577,24.577,0,0,1,14.641-22.47l42.88-18.939a79.666,79.666,0,0,0,142.521.006l42.867,18.933a24.577,24.577,0,0,1,14.641,22.47v51.254a7.5,7.5,0,0,0,15,0V393.123a39.555,39.555,0,0,0-9.472-25.658l11.607-5.8,8.713,8.28a31.531,31.531,0,0,0,43.465,0l8.712-8.279,25.052,12.525A16.458,16.458,0,0,1,497,388.99v55.388a7.5,7.5,0,0,0,15,0V388.99A31.382,31.382,0,0,0,494.56,360.772Zm-62.2-181.442c13.544,0,24.564,9.222,24.564,20.557,0,.475-.038.946-.076,1.416a63.54,63.54,0,0,0-48.972,0c-.039-.47-.08-.94-.08-1.415C407.791,188.552,418.811,179.33,432.355,179.33ZM87.662,361.628l-17.09-17.09a17.954,17.954,0,0,0,.542-4.368v-3.164a52.542,52.542,0,0,0,14.843,2.622c.577.018,1.151.026,1.726.026a55.7,55.7,0,0,0,16.525-2.5v3.011a20.609,20.609,0,0,0,.464,4.451Zm-1.255-36.995c-21.694-.649-39.343-19.757-39.343-42.592V268.025a7.5,7.5,0,0,0-.792-3.354l-4.631-9.262a24.7,24.7,0,0,1-2.593-10.986v-.447a32.618,32.618,0,0,1,32.581-32.581h64.646V242.53a32.735,32.735,0,0,1-3.44,14.57l-3.785,7.57a7.5,7.5,0,0,0-.792,3.354v16.032a40.6,40.6,0,0,1-41.851,40.577Zm62.683,26.432L125.4,344.3c-6.19-1.768-6.189-2.458-6.189-4.127l0-10.333a55.386,55.386,0,0,0,11.408-10.49,15.378,15.378,0,0,0,5.439,6.124A165.613,165.613,0,0,0,170.1,341.786ZM256,380.766a64.581,64.581,0,0,1-57.523-35.115l10.917-4.822A23.544,23.544,0,0,0,223.419,319.3v-18a87.63,87.63,0,0,0,65.162,0v18a23.543,23.543,0,0,0,14.025,21.526l10.915,4.821A64.422,64.422,0,0,1,256,380.766Zm65.034-48.2-12.368-5.463a8.536,8.536,0,0,1-5.085-7.8V293.517a87.663,87.663,0,0,0,40.081-73.59V205.864A31.279,31.279,0,0,0,333,182.21c-15.069-13.106-49.18-35.977-108.318-41.891a7.5,7.5,0,1,0-1.492,14.926c55.005,5.5,86.242,26.347,99.967,38.284a16.286,16.286,0,0,1,5.505,12.335v14.063a72.661,72.661,0,1,1-145.322,0v-6.274a8.17,8.17,0,0,1,4.274-7.063c9.377-5.4,21.743-15.4,27.406-32.388a7.5,7.5,0,0,0-14.231-4.743c-4.172,12.516-13.538,20.031-20.66,24.132a23.311,23.311,0,0,0-11.79,20.063v6.274a87.659,87.659,0,0,0,40.081,73.59V319.3a8.537,8.537,0,0,1-5.085,7.8l-12.369,5.463c-24.156-6.463-39.634-15.08-46.757-19.691a.369.369,0,0,1-.182-.434c2.616-15.464,9.338-60.069,15.244-140.063,2.178-29.515,12.583-54.235,30.09-71.485C206.476,84.035,229.519,75.121,256,75.121s49.524,8.914,66.639,25.777c17.507,17.25,27.912,41.969,30.091,71.484,5.9,79.991,12.627,124.6,15.244,140.063a.369.369,0,0,1-.183.435C360.658,317.5,345.18,326.109,321.034,332.57Zm79.773,12.555a.513.513,0,0,1-.285.462l-23.5,11.749c-.279-.131-.547-.278-.829-.4L341.9,341.788a165.642,165.642,0,0,0,34.039-16.316,15.417,15.417,0,0,0,6.821-15.528c-.056-.333-.117-.7-.177-1.058a55.478,55.478,0,0,0,18.22,20.975Zm42.946,13.945a16.536,16.536,0,0,1-22.8,0l-6.971-6.624a15.52,15.52,0,0,0,1.822-7.321v-7.981a55.822,55.822,0,0,0,33.1,0v7.979a15.517,15.517,0,0,0,1.823,7.324Zm-11.4-34.418a40.5,40.5,0,0,1-40.343-36.171,7.5,7.5,0,0,0-1.065-3.117A48.614,48.614,0,1,1,478.5,275.179c-21.3-21.635-58.759-30.114-60.565-30.512a7.5,7.5,0,0,0-9.114,7.324c0,.049-.342,5.252-5.819,10.729a7.5,7.5,0,1,0,10.606,10.606,36.289,36.289,0,0,0,8.15-12.114c12.62,3.749,38.813,13.217,50.568,29.836A40.49,40.49,0,0,1,432.355,324.652Z" fill="#009846"/>
      </g>
    </g>
    <g id="Сгруппировать_10936" data-name="Сгруппировать 10936">
      <g id="Сгруппировать_10935" data-name="Сгруппировать 10935">
        <path id="Контур_15586" data-name="Контур 15586" d="M472.436,398.692a7.5,7.5,0,0,0-7.5,7.5v38.187a7.5,7.5,0,0,0,15,0V406.192A7.5,7.5,0,0,0,472.436,398.692Z" fill="#009846"/>
      </g>
    </g>
  </g>
</svg>
