<svg xmlns="http://www.w3.org/2000/svg" width="479.996" height="480" viewBox="0 0 479.996 480">
  <g id="Outline" transform="translate(-16 -16)">
    <path id="Контур_15589" data-name="Контур 15589" d="M160,448v16H144V448Zm-48,0v16h16V448Zm-95.023,9.661A47.988,47.988,0,0,1,16,448V304H32V448a32.036,32.036,0,0,0,32,32H184V424H88a8,8,0,0,1-8-8V320H96v88h2.744l43.335-79.02-18.538-20.388c-.01-.011-.018-.024-.029-.035L68.6,248.155A40.047,40.047,0,0,0,32,288H16a56.078,56.078,0,0,1,48-55.419V89.541L50.012,54.571A28.882,28.882,0,0,1,56.228,24.24,27.983,27.983,0,0,1,76.12,16H211.88a28.125,28.125,0,0,1,26.1,38.581L227,82.041l19.968,3.994A21.188,21.188,0,0,1,242.812,128q-5.154,0-10.291-.238l14.907,37.267A8,8,0,0,1,240,176H216v40a31.793,31.793,0,0,1-4.3,16h.975A72,72,0,0,1,273.6,265.636l22.042,35.01L282.1,309.17l-22.041-35.008A56.335,56.335,0,0,0,246.485,259.4L164.992,408h49.391l-1.771-1.517A22.568,22.568,0,0,1,224,367.006V320h16v21.75l34.431,56.35,14.454,11.563,19.479-133.078A24.414,24.414,0,0,1,332.52,256h20.186c4.982-9.327,15.225-16,25.676-16h10.011l.5-1.967C392.024,225.678,404.345,216,416.938,216a19.981,19.981,0,0,1,20.346,24h6.036a20.644,20.644,0,0,1,16.534,7.68,19.6,19.6,0,0,1,3.739,8.32H471.6a24.529,24.529,0,0,1,18.587,8.452,23.743,23.743,0,0,1,5.559,18.965l-9.426,64.359a22,22,0,0,1,9.248,22.538l-10.079,50.393A24.064,24.064,0,0,1,461.955,440H436.15a22,22,0,0,1-21.573-26.314l10.078-50.393A24.066,24.066,0,0,1,448.189,344H470.7l9.212-62.9a7.645,7.645,0,0,0-1.832-6.185A8.536,8.536,0,0,0,471.6,272h-9.88l-4.557,17.967A8,8,0,0,1,449.408,296H352a8,8,0,0,1-7.755-9.967L347.8,272H332.52a8.324,8.324,0,0,0-8.325,6.9l-28.109,192a7.658,7.658,0,0,0,1.772,6.121A8.508,8.508,0,0,0,304.18,480l.214.008H443.48a8.324,8.324,0,0,0,8.325-6.9l2.672-18.255,15.832,2.318-2.673,18.259A24.414,24.414,0,0,1,443.48,496H64a48.082,48.082,0,0,1-47.023-38.339ZM478.636,362.2A5.919,5.919,0,0,0,474,360H448.189a8.022,8.022,0,0,0-7.844,6.432l-10.078,50.391A6,6,0,0,0,436.15,424h25.805a8.021,8.021,0,0,0,7.845-6.431l10.079-50.392a5.919,5.919,0,0,0-1.243-4.977ZM362.282,280h80.9l4.556-17.967a5.236,5.236,0,0,0-.516-4.528,4.793,4.793,0,0,0-3.9-1.5H427.086a8,8,0,0,1-7.755-9.967l2.029-8a5.246,5.246,0,0,0-.516-4.529,4.8,4.8,0,0,0-3.906-1.5c-5.333,0-11.191,4.657-12.538,9.967l-2.029,8A8,8,0,0,1,394.616,256H378.382c-5.333,0-11.193,4.657-12.539,9.967ZM215.208,96H161.745a213.842,213.842,0,0,0,81.067,16,5.188,5.188,0,0,0,1.018-10.275Zm-4.593-16.08,6.426-16.063L220.184,56H212a12,12,0,0,0-1.385,23.92ZM77.416,80H186.707a27.787,27.787,0,0,1-2.417-8H96V56h90.707A28.034,28.034,0,0,1,212,40h11.263a12.128,12.128,0,0,0-11.383-8H76.12A12.117,12.117,0,0,0,64.87,48.636Zm6.872,45.84C87.8,111.829,100.33,104,114.233,104l2.668-8H80v68.686l11.654-11.654a29.09,29.09,0,0,1-7.366-27.192ZM80,232H184a16.019,16.019,0,0,0,16-16V200H176V184h24V168a8,8,0,0,1,8-8h20.184l-13.5-33.744a230.316,230.316,0,0,1-23.857-4.237A16,16,0,1,1,166.711,115a229.312,229.312,0,0,1-34.2-15.248l-4.926,14.78A8,8,0,0,1,120,120h-7.73a12.823,12.823,0,0,0-12.459,9.722,13.3,13.3,0,0,0,6.716,14.6l1.024.507a8,8,0,0,1,2.106,12.826L80,187.314Zm104,16H173.766l-5.548,16.645,2.131,12.785L186.489,248Zm-56.411,17.8L115.719,248H90.084l34.2,37.62Zm22.626,48.339,7.7-14.032-5.8-34.8a8.014,8.014,0,0,1,.3-3.845L156.9,248H134.948l7.708,11.562a8,8,0,0,1,1.235,5.754l-5.9,35.381ZM146.743,408l85.741-156.351A56.147,56.147,0,0,0,212.67,248h-7.921L116.992,408ZM270.8,417.1,240,429.416V480h41.408a23.673,23.673,0,0,1-1.154-11.417l5.856-39.994Zm-47.779-22.769,19.606,16.8,14.992-6-26.187-20.949a6.7,6.7,0,0,0-2.007-1.1,6.592,6.592,0,0,0-6.4,11.248ZM200,480h24V424H200Z" fill="#009846"/>
  </g>
</svg>
