<svg id="world" xmlns="http://www.w3.org/2000/svg" width="512" height="512" viewBox="0 0 512 512">
  <g id="Сгруппировать_10957" data-name="Сгруппировать 10957">
    <path id="Контур_15600" data-name="Контур 15600" d="M465.516,161.243a60,60,0,1,0-87.032,0,90.626,90.626,0,0,0-25.6,21.179,106.094,106.094,0,0,0-47.733-50.428C322.5,117.353,332,96.8,332,75c0-41.463-34.535-75-76-75s-76,33.535-76,75a74.072,74.072,0,0,0,26.849,56.994,106.085,106.085,0,0,0-47.733,50.428,90.642,90.642,0,0,0-25.6-21.179,60,60,0,1,0-87.032,0A90.068,90.068,0,0,0,0,240v15C0,396.628,115.6,512,256,512c142.222,0,256-117.311,256-257V240A90.068,90.068,0,0,0,465.516,161.243ZM422,90a30,30,0,1,1-30,30A30.034,30.034,0,0,1,422,90ZM361.753,269.9A420.569,420.569,0,0,1,349.175,361H271V269.9ZM256,30c24.935,0,46,20.607,46,45s-21.065,45-46,45-46-20.607-46-45S231.065,30,256,30ZM90,90a30,30,0,1,1-30,30A30.034,30.034,0,0,1,90,90Zm0,90a60.068,60.068,0,0,1,60,60H30A60.068,60.068,0,0,1,90,180ZM30.506,270h89.729a455.646,455.646,0,0,0,11.707,91H56.206A226.076,226.076,0,0,1,30.506,270ZM75.162,391h65.213c8.9,27.16,21.792,55.18,39.514,77.74A227.113,227.113,0,0,1,75.162,391ZM241,479.427c-33.56-11.395-56.751-55.056-68.906-88.427H241ZM241,361H162.825a419.638,419.638,0,0,1-12.578-91H241ZM180,240V225c0-41.355,34.093-75,76-75s76,33.645,76,75v15Zm91,239.427V390.9h68.906C327.751,424.272,304.545,468.037,271,479.427Zm61.111-10.687c17.728-22.568,30.621-50.7,39.514-77.84h65.213A227.319,227.319,0,0,1,332.111,468.74ZM455.794,361H380.058a456.657,456.657,0,0,0,11.707-91.1h89.729A226.54,226.54,0,0,1,455.794,361ZM362,240a60,60,0,0,1,120,0Z" fill="#009846"/>
  </g>
</svg>
