<svg xmlns="http://www.w3.org/2000/svg" width="415.506" height="512" viewBox="0 0 415.506 512">
  <g id="voting" transform="translate(-0.5 0)">
    <path id="Контур_15601" data-name="Контур 15601" d="M322.3,157.918l31.129-32.473,4.8,4.844a20.4,20.4,0,0,0,14.5,6.082h.1a20.4,20.4,0,0,0,14.453-5.949l22.66-22.445a20.568,20.568,0,0,0,.133-29.051L378.418,46.98A7.682,7.682,0,1,0,367.5,57.793l31.648,31.945a5.181,5.181,0,0,1-.035,7.324l-22.656,22.449a5.156,5.156,0,0,1-3.645,1.5h-.027a5.154,5.154,0,0,1-3.656-1.535l-9.914-10.008c-.133-.156-.266-.312-.414-.461L335.934,85.965l-38.977-39.34a5.184,5.184,0,0,1,.035-7.324l22.656-22.449a5.193,5.193,0,0,1,7.328.035L347.9,38.008A7.682,7.682,0,0,0,358.813,27.2L337.887,6.074a20.565,20.565,0,0,0-29.051-.133L286.18,28.387A20.561,20.561,0,0,0,282.1,51.773L249.016,47.7A53.348,53.348,0,0,0,203.9,63.938L151.285,119.6H111.41a22.793,22.793,0,0,0-22.766,22.77V228.48a7.68,7.68,0,0,0,15.359,0V142.371a7.412,7.412,0,0,1,7.406-7.406h83.3A29.471,29.471,0,0,0,220.6,178.547h53.34a67.135,67.135,0,0,0,28.426-6.379V312.2H104.008V259.2a7.682,7.682,0,0,0-15.363,0V272H46.43a21.394,21.394,0,0,0-19.648,12.914L1.867,342.633A16.422,16.422,0,0,0,.512,349.3c0,.082-.012.164-.012.246V488.586A23.441,23.441,0,0,0,23.914,512H382.461a23.441,23.441,0,0,0,23.414-23.414V349.414c0-.086-.012-.168-.016-.254a16.382,16.382,0,0,0-1.277-6.352l-24.145-57.664A21.336,21.336,0,0,0,360.7,272.008H317.727V162.234Q320.105,160.189,322.3,157.918ZM360.7,287.367a6.013,6.013,0,0,1,5.563,3.707l24.152,57.672a1.1,1.1,0,0,1-1.02,1.527H357.324a7.68,7.68,0,1,0,0,15.359H389.4c.375,0,.746-.012,1.113-.039V488.586a8.06,8.06,0,0,1-8.051,8.051H23.914a8.062,8.062,0,0,1-8.051-8.051V365.594c.367.027.738.039,1.113.039H324.891a7.682,7.682,0,0,0,0-15.363H16.977a1.1,1.1,0,0,1-1.012-1.543l24.918-57.715a6.036,6.036,0,0,1,5.547-3.645H88.645V312.43h-5.8a7.68,7.68,0,0,0,0,15.359H323.184a7.68,7.68,0,0,0,0-15.359h-5.457V287.367ZM220.6,163.184a14.119,14.119,0,1,1,0-28.238h32.117a7.682,7.682,0,1,0,0-15.363H172.445l42.625-45.09a37.922,37.922,0,0,1,32.07-11.543l50.469,6.211,27.227,27.43,17.773,17.938-31.4,32.758a51.873,51.873,0,0,1-37.27,15.9H220.6Zm0,0" fill="#009846"/>
    <path id="Контур_15602" data-name="Контур 15602" d="M187.313,281.395a7.648,7.648,0,0,0,5.43-2.25l63.5-63.5a7.681,7.681,0,0,0-10.863-10.863l-58.066,58.066-23.246-23.246A7.681,7.681,0,0,0,153.2,250.469l28.676,28.676A7.664,7.664,0,0,0,187.313,281.395Zm0,0" fill="#009846"/>
    <path id="Контур_15603" data-name="Контур 15603" d="M81.527,397.637a18.839,18.839,0,0,0-18.82,18.816v24.152a18.84,18.84,0,0,0,18.82,18.82h243.32a18.84,18.84,0,0,0,18.82-18.82V416.453a18.839,18.839,0,0,0-18.82-18.816ZM328.3,416.453v24.152a3.461,3.461,0,0,1-3.457,3.457H81.527a3.461,3.461,0,0,1-3.457-3.457V416.453A3.461,3.461,0,0,1,81.527,413h243.32A3.461,3.461,0,0,1,328.3,416.453Zm0,0" fill="#009846"/>
  </g>
</svg>
