<svg xmlns="http://www.w3.org/2000/svg" width="449.999" height="512.285" viewBox="0 0 449.999 512.285">
  <g id="file_2_" data-name="file (2)" transform="translate(-31.143)">
    <path id="Контур_15604" data-name="Контур 15604" d="M38.643,82.835a7.5,7.5,0,0,0,7.5-7.5V47.51A32.528,32.528,0,0,1,78.614,15H249.686a22.57,22.57,0,0,1,4.937.562v96.5a34.6,34.6,0,0,0,34.522,34.609h96.188a22.7,22.7,0,0,1,.553,4.91v40.966a7.5,7.5,0,0,0,15,0V151.58a37.277,37.277,0,0,0-10.946-26.49L276.219,11.016A37.219,37.219,0,0,0,249.686,0H78.614A47.544,47.544,0,0,0,31.143,47.51V75.335a7.5,7.5,0,0,0,7.5,7.5ZM375.318,131.67H289.145a19.588,19.588,0,0,1-19.522-19.609V25.646Z" fill="#009846"/>
    <path id="Контур_15605" data-name="Контур 15605" d="M122.814,448.1h-44.2a32.527,32.527,0,0,1-32.471-32.509V110.335a7.5,7.5,0,0,0-15,0V415.593A47.544,47.544,0,0,0,78.614,463.1h44.2a7.5,7.5,0,0,0,0-15Z" fill="#009846"/>
    <path id="Контур_15606" data-name="Контур 15606" d="M96.009,157.532H219.62a7.5,7.5,0,0,0,0-15H96.009a7.5,7.5,0,0,0,0,15Z" fill="#009846"/>
    <path id="Контур_15607" data-name="Контур 15607" d="M96.009,322.573a7.5,7.5,0,0,0,0,15H219.62a7.5,7.5,0,0,0,0-15Z" fill="#009846"/>
    <path id="Контур_15608" data-name="Контур 15608" d="M325.349,210.046a7.5,7.5,0,0,0-7.5-7.5H94.011a7.5,7.5,0,0,0,0,15H317.849A7.5,7.5,0,0,0,325.349,210.046Z" fill="#009846"/>
    <path id="Контур_15609" data-name="Контур 15609" d="M275.385,270.06a7.5,7.5,0,0,0-7.5-7.5H94.011a7.5,7.5,0,0,0,0,15H267.885A7.5,7.5,0,0,0,275.385,270.06Z" fill="#009846"/>
    <path id="Контур_15610" data-name="Контур 15610" d="M481.066,470.354c-.494-6.891-3.658-17.031-15.918-26.248l-64.717-51.081L415.085,378.4c9.753,4.592,21.337,1.217,29.111-6.58,10.266-10.306,11.472-25.873,2.687-34.708l-46-46.167v-63.4a7.5,7.5,0,0,0-15,0v48.346l-14.9-14.958c-9.47-9.539-25.481-6.851-34.668,2.683-8.465,8.5-10.765,20.571-6.386,29.5L262.7,360.206c-8.909-4.289-20.9-1.963-29.347,6.474-9.512,9.179-12.195,25.207-2.68,34.669L277.506,448.1H157.814a7.5,7.5,0,1,0,0,15H292.532l14.256,14.23c9.8,9.417,25.079,6.876,34.7-2.7,7.831-7.825,11.18-19.5,6.5-29.268l14.24-14.21L413.3,495.989c18.348,22.262,37.022,20.02,55.344,3.494,8.732-8.74,13.145-19.085,12.426-29.129ZM346.947,274.2c3.879-3.566,9.039-6.09,13.4-2.681l75.9,76.182c2.862,2.878,1.632,9.162-2.627,13.482-3.987,3.785-9.894,6.45-14.062,2.145L391.445,335.1a7.5,7.5,0,1,0-10.627,10.585l22.84,22.925c-19.7,19.64-45.8,45.7-65.5,65.359l-64.066-63.952,65.673-65.534L356.1,320.874a7.5,7.5,0,1,0,10.627-10.587l-21.63-21.709c-3.935-3.092-2.8-9.553,1.854-14.382ZM330.882,464.021c-4.313,4.3-10.624,5.556-13.5,2.69l-76.119-75.983c-3.4-4.374-.884-9.546,2.688-13.438,4.74-4.591,11.177-5.772,14.223-1.97l75.4,75.264c3.4,4.372.878,9.554-2.689,13.437Zm127.147,24.861c-11.273,11.233-23.439,10.943-32.893-2.1l-52.224-66.292,16.827-16.792,66.188,52.243c13.037,9.465,13.341,21.673,2.1,32.945Z" fill="#009846"/>
  </g>
</svg>
