<svg xmlns="http://www.w3.org/2000/svg" width="384.904" height="472.733" viewBox="0 0 384.904 472.733">
  <path id="Контур_31" data-name="Контур 31" d="M-3358.819-557.215h351.844v10h-351.844v-10Zm183.69-373.615,10.584,9.727,13.436.219.6,14.361,9.349,9.656-9.731,10.578-.214,13.433-14.363.6-9.657,9.345-10.578-9.727-13.429-.221-.605-14.358-9.349-9.654,9.732-10.58.222-13.437,14.348-.6,9.659-9.345Zm0,9.8L-3182-914.38l-10.212.431-.156,9.556-6.921,7.526,6.652,6.868.426,10.213,9.554.155,7.526,6.921,6.874-6.648,10.212-.429.158-9.556,6.915-7.525-6.646-6.868-.427-10.214-9.554-.156-7.532-6.921Zm-182.455,172.9a210.538,210.538,0,0,1,48.466,10.269,200.972,200.972,0,0,1,47.732,23.683,5,5,0,0,1,1.349,6.93,4.993,4.993,0,0,1-6.931,1.346,190.994,190.994,0,0,0-45.353-22.51,200.5,200.5,0,0,0-45.262-9.694v144.233h80.768c.555-10.094,4.2-56.629,25.642-104.415a5.055,5.055,0,0,1,.295-.662c13.553-29.979,34.141-60.385,65.392-82.538-21.036-16.24-48.357-30.2-76.782-41.146-33.048-12.719-67.505-21.336-95.315-24.718v99.222Zm251.061,47.383a224.967,224.967,0,0,1,52.963-31.186,232.6,232.6,0,0,1,60.885-16.12v-99.286c-27.085,3.408-60.42,12.563-92.615,24.732-34.166,12.911-66.935,29.182-89.482,45.543a4.924,4.924,0,0,1-1.532.753,5.009,5.009,0,0,1-1.494,1.6c-29.616,20.342-49.408,48.546-62.632,76.729a220.111,220.111,0,0,1,37.152,42.243,274.575,274.575,0,0,1,26.164,48.867A254.291,254.291,0,0,1-3159.4-641.1a233.878,233.878,0,0,1,30.364-39.2,4.986,4.986,0,0,1,7.047-.136,4.985,4.985,0,0,1,.135,7.048,224.242,224.242,0,0,0-29.071,37.523,248.285,248.285,0,0,0-21.551,44.239,4.976,4.976,0,0,1-2.926,2.928,4.98,4.98,0,0,1-6.406-2.928,273.643,273.643,0,0,0-29.707-58.521,210.748,210.748,0,0,0-33.162-38.257c-20.875,49.777-22.265,96.7-22.274,96.919a4.9,4.9,0,0,1-.265,1.436,5.109,5.109,0,0,1,.143,1.181,5,5,0,0,1-5,5h-90.5a5,5,0,0,1-5-5V-852.916a5,5,0,0,1,5-5,5.192,5.192,0,0,1,.911.083c29.393,2.979,67.015,12.076,102.948,25.908,30.282,11.657,59.434,26.7,81.561,44.315,23.054-16.025,55.1-31.76,88.358-44.326,34.97-13.219,71.4-22.969,100.221-25.9a5.162,5.162,0,0,1,.91-.083,5,5,0,0,1,5,5V-588.87a5,5,0,0,1-5,5h-95.381a5,5,0,0,1-5-5,4.9,4.9,0,0,1,.224-1.478,4.629,4.629,0,0,1-.2-1.147c-.021-.313-5.978-108.965-75.1-171.713a4.991,4.991,0,0,1-.331-7.047,4.983,4.983,0,0,1,7.043-.332c22.4,20.328,38.428,45.2,49.9,69.847ZM-2992.675-738a222.568,222.568,0,0,0-57.058,15.286,214.807,214.807,0,0,0-52.61,31.381c19.234,45.63,23.441,88.372,24.146,97.462h85.521V-738Zm-239.993,269.9h113.425v10h-113.425v-10Zm-42.823-45.731h194.441v10H-3275.49Z" transform="translate(3367.58 930.83)" fill="#fff" fill-rule="evenodd" opacity="0.29"/>
</svg>
