<svg xmlns="http://www.w3.org/2000/svg" width="18.891" height="18.973" viewBox="0 0 18.891 18.973">
  <defs>
    <style>.a{fill:#4aa85d;}</style>
  </defs>
  <path class="a" d="M368.927,220.854h3.482v6.153h-3.482Z" transform="translate(-355.296 -212.667)" />
  <path class="a" d="M208.927,220.854h3.482v6.153h-3.482Z" transform="translate(-201.223 -212.667)" />
  <path class="a" d="M18.706,416.854H2.038a1.113,1.113,0,0,0-1.111,1.112v1.3a1.113,1.113,0,0,0,1.111,1.112H18.706a1.113,1.113,0,0,0,1.111-1.112v-1.3A1.113,1.113,0,0,0,18.706,416.854Z" transform="translate(-0.927 -401.402)" />
  <path class="a" d="M19.121,3.491,10.785.08a1.106,1.106,0,0,0-.829,0L1.623,3.491a1.107,1.107,0,0,0-.7,1.032v1.44A1.113,1.113,0,0,0,2.038,7.074H18.706a1.113,1.113,0,0,0,1.111-1.112V4.522a1.107,1.107,0,0,0-.7-1.032Zm-8.193.655a.556.556,0,1,1-1.111,0V2.96a.556.556,0,1,1,1.111,0Z" transform="translate(-0.927 0)" />
  <path class="a" d="M48.927,220.854h3.482v6.153H48.927Z" transform="translate(-47.149 -212.667)" />
</svg>