<svg xmlns="http://www.w3.org/2000/svg" width="55.516" height="55.486" viewBox="0 0 55.516 55.486"><defs><style>.a{fill:#4aa85d;}</style></defs><g transform="translate(-802.926 -452.609)"><path class="a" d="M833.253,529.339c.184,1.258.354,2.5.553,3.742.106.659-.034,1.281-.743,1.273-.329,0-.868-.6-.942-1-.368-1.984-.6-3.994-.91-5.989-.132-.837.112-1.3.994-1.438,2.278-.368,4.548-.782,6.822-1.175.6-.1,1.142,0,1.252.685s-.359.936-.968,1.038c-1.7.287-3.4.594-5.334.933.468.392.8.7,1.152.962a25.916,25.916,0,0,0,41.252-16.732,25.494,25.494,0,0,0-4.3-18.931c-.162-.238-.418-.476-.439-.73-.027-.319.047-.82.254-.941a1.247,1.247,0,0,1,1.063.025,2.811,2.811,0,0,1,.736.916c11.411,16.651,1.535,39.749-18.388,42.972a27.312,27.312,0,0,1-21.084-5.074c-.233-.169-.461-.347-.7-.509C833.476,529.33,833.39,529.349,833.253,529.339Z" transform="translate(-20.086 -27.243)"/><path class="a" d="M848.3,458.844c-.2-1.477-.363-2.69-.526-3.9-.077-.572-.083-1.142.647-1.261.781-.127.986.438,1.077,1.052.3,2,.571,4,.874,6a1.059,1.059,0,0,1-.97,1.388q-3.362.565-6.724,1.125c-.584.1-1.233.2-1.382-.6-.159-.853.5-1.007,1.132-1.117,1.66-.288,3.321-.567,5.183-.885a25.049,25.049,0,0,0-10.007-5.376,25.887,25.887,0,0,0-32.363,20.043,25.435,25.435,0,0,0,3.984,19.728c.08.12.157.243.245.357.4.523.742,1.114.042,1.585s-1.1-.09-1.487-.614c-8.157-11.18-6.339-27.271,4.148-36.675a27.741,27.741,0,0,1,35.226-1.483C847.62,458.373,847.852,458.529,848.3,458.844Z"/><path class="a" d="M862.954,535.476a27.958,27.958,0,0,1-3.964-.993A31.166,31.166,0,0,1,841,516.363a11.6,11.6,0,0,1-.618-5.07c.253-2.889,3.133-5.284,6.043-5.412a2.5,2.5,0,0,1,2.369,1.251q1.425,2.363,2.753,4.784a2.564,2.564,0,0,1-.529,3.262c-1.932,2.074-1.922,2.068-.414,4.514a16.45,16.45,0,0,0,6.754,6.075,1.424,1.424,0,0,0,2.006-.319,10.327,10.327,0,0,1,1.152-1.144,2.487,2.487,0,0,1,3.012-.382c1.651.89,3.274,1.834,4.877,2.808a2.473,2.473,0,0,1,1.213,2.389A6.976,6.976,0,0,1,862.954,535.476Zm-.886-1.917c3.292.065,4.981-1.382,5.714-4.075a1.109,1.109,0,0,0-.568-1.443c-.971-.555-1.934-1.122-2.9-1.679-2.458-1.411-1.95-1.41-3.844.446a2.763,2.763,0,0,1-3.626.623,17.652,17.652,0,0,1-7.9-7.152c-1.5-2.587-2.162-3.728.672-6.165.027-.023.048-.055.075-.078a1.075,1.075,0,0,0,.216-1.537c-.827-1.4-1.6-2.824-2.464-4.2a1.446,1.446,0,0,0-1-.646,5,5,0,0,0-4.356,3.644,8.923,8.923,0,0,0,.959,5.664,30.467,30.467,0,0,0,14.912,15.213A28.375,28.375,0,0,0,862.068,533.56Z" transform="translate(-26.596 -37.873)"/><path class="a" d="M894.176,489.489a18.087,18.087,0,0,1,17.4,17.466,1.815,1.815,0,0,1-.576,1.339c-.542.391-1.091-.14-1.127-1.048A16.4,16.4,0,0,0,894,491.229c-.6-.029-1.27-.01-1.293-.8C892.682,489.432,893.467,489.468,894.176,489.489Z" transform="translate(-63.836 -26.216)"/><path class="a" d="M893.641,506.733a13.262,13.262,0,0,1,13.02,12.6c.015.616-.035,1.235-.8,1.3-.871.072-.9-.594-.953-1.243-.458-5.46-3.862-9.534-8.887-10.63a14.38,14.38,0,0,0-2.033-.272c-.609-.044-1.317-.094-1.194-.855C892.863,507.217,893.485,506.888,893.641,506.733Z" transform="translate(-63.886 -38.481)"/><path class="a" d="M887.94,547.492a3.1,3.1,0,1,1,3.086-3.139A3.148,3.148,0,0,1,887.94,547.492Zm1.333-3.091a1.371,1.371,0,0,0-1.4-1.343,1.315,1.315,0,0,0-1.292,1.329,1.37,1.37,0,0,0,1.392,1.344A1.347,1.347,0,0,0,889.273,544.4Z" transform="translate(-58.232 -63.056)"/><path class="a" d="M893.51,524c4.438.112,8.1,3.777,8.066,7.767,0,.39-.524.776-.8,1.164-.3-.328-.841-.645-.854-.984a6.48,6.48,0,0,0-6.2-6.2c-.63-.032-1.157-.285-.987-.945C892.837,524.416,893.372,524.137,893.51,524Z" transform="translate(-63.831 -50.76)"/></g></svg>