<svg xmlns="http://www.w3.org/2000/svg" width="39.6" height="49.5" viewBox="0 0 39.6 49.5"><defs><style>.a{fill:#4aa85d;}</style></defs><g transform="translate(-64 -16)"><path class="a" d="M200,80h8.25v1.65H200Z" transform="translate(-121.975 -57.4)"/><path class="a" d="M160,80h1.65v1.65H160Z" transform="translate(-86.1 -57.4)"/><path class="a" d="M216,136h6.6v1.65H216Z" transform="translate(-136.325 -107.625)"/><path class="a" d="M120,136h7.425v1.65H120Z" transform="translate(-50.225 -107.625)"/><path class="a" d="M256,192h14.025v1.65H256Z" transform="translate(-172.2 -157.85)"/><path class="a" d="M168,192h6.6v1.65H168Z" transform="translate(-93.275 -157.85)"/><path class="a" d="M120,192h3.3v1.65H120Z" transform="translate(-50.225 -157.85)"/><path class="a" d="M352,248h4.125v1.65H352Z" transform="translate(-258.3 -208.075)"/><path class="a" d="M232,248h9.9v1.65H232Z" transform="translate(-150.675 -208.075)"/><path class="a" d="M120,248h9.075v1.65H120Z" transform="translate(-50.225 -208.075)"/><path class="a" d="M296,304h9.9v1.65H296Z" transform="translate(-208.075 -258.3)"/><path class="a" d="M176,304h9.9v1.65H176Z" transform="translate(-100.45 -258.3)"/><path class="a" d="M120,304h3.3v1.65H120Z" transform="translate(-50.225 -258.3)"/><path class="a" d="M360,360h3.3v1.65H360Z" transform="translate(-265.475 -308.525)"/><path class="a" d="M216,360h12.375v1.65H216Z" transform="translate(-136.325 -308.525)"/><path class="a" d="M120,360h7.425v1.65H120Z" transform="translate(-50.225 -308.525)"/><path class="a" d="M368,416h2.475v1.65H368Z" transform="translate(-272.65 -358.75)"/><path class="a" d="M264,416h8.25v1.65H264Z" transform="translate(-179.375 -358.75)"/><path class="a" d="M120,416h12.375v1.65H120Z" transform="translate(-50.225 -358.75)"/><path class="a" d="M68.125,65.5h31.35a4.13,4.13,0,0,0,4.125-4.125V30.567a4.1,4.1,0,0,0-1.208-2.917L91.95,17.208h0A4.1,4.1,0,0,0,89.033,16H68.125A4.13,4.13,0,0,0,64,20.125v41.25A4.13,4.13,0,0,0,68.125,65.5ZM65.65,20.125a2.478,2.478,0,0,1,2.475-2.475H89.033a2.494,2.494,0,0,1,.542.06V25.9A4.13,4.13,0,0,0,93.7,30.025h4.95v-1.65H93.7A2.478,2.478,0,0,1,91.225,25.9V18.817l10,10a2.458,2.458,0,0,1,.725,1.75V61.375a2.478,2.478,0,0,1-2.475,2.475H68.125a2.478,2.478,0,0,1-2.475-2.475Z"/></g></svg>