<svg xmlns="http://www.w3.org/2000/svg" xmlns:xlink="http://www.w3.org/1999/xlink" width="203.12" height="75.312" viewBox="0 0 203.12 75.312">
  <defs>
    <linearGradient id="linear-gradient" x1="0.457" y1="0.84" x2="0.562" y2="0.013" gradientUnits="objectBoundingBox">
      <stop offset="0" stop-color="#6a67d2"/>
      <stop offset="1" stop-color="#cccbff"/>
    </linearGradient>
  </defs>
  <g id="Сгруппировать_344" data-name="Сгруппировать 344" transform="translate(-925.502 -51.949)">
    <g id="Сгруппировать_298" data-name="Сгруппировать 298" transform="translate(1020.711 69.416)">
      <path id="Контур_767" data-name="Контур 767" d="M17.559,0H14.443V-8.379q0-1.357.117-3h-.078a14.752,14.752,0,0,1-.439,1.855L10.762,0H8.184L4.844-9.424A18.338,18.338,0,0,1,4.4-11.377H4.316q.127,2.07.127,3.633V0H1.6V-14H6.221L9.082-5.7a11.687,11.687,0,0,1,.5,2h.059A20.158,20.158,0,0,1,10.2-5.723L13.057-14h4.5Zm14.6-6.064q0,6.309-5.879,6.309-5.7,0-5.7-6.162V-14H23.74v8.125q0,3.4,2.656,3.4Q29-2.48,29-5.762V-14h3.154ZM46.953,0H43.33L41.152-3.6q-.244-.41-.469-.732a4.069,4.069,0,0,0-.454-.552,1.806,1.806,0,0,0-.479-.352,1.215,1.215,0,0,0-.542-.122h-.85V0H35.205V-14h5q5.1,0,5.1,3.809a3.944,3.944,0,0,1-.225,1.353,3.757,3.757,0,0,1-.635,1.118,4.024,4.024,0,0,1-.991.859,5.112,5.112,0,0,1-1.294.566v.039a2.007,2.007,0,0,1,.605.317,4.336,4.336,0,0,1,.566.513,7.153,7.153,0,0,1,.522.63q.249.337.454.659ZM38.359-11.641v3.9h1.367a2.267,2.267,0,0,0,1.631-.586A1.955,1.955,0,0,0,41.982-9.8q0-1.836-2.2-1.836ZM53.984.244a6.519,6.519,0,0,1-4.9-1.958,7.029,7.029,0,0,1-1.895-5.1,7.533,7.533,0,0,1,1.924-5.371,6.661,6.661,0,0,1,5.1-2.051,6.356,6.356,0,0,1,4.849,1.963A7.237,7.237,0,0,1,60.908-7.1a7.412,7.412,0,0,1-1.919,5.322A6.586,6.586,0,0,1,53.984.244Zm.137-11.768a3.175,3.175,0,0,0-2.637,1.245,5.191,5.191,0,0,0-.977,3.3,5.1,5.1,0,0,0,.977,3.291A3.129,3.129,0,0,0,54.043-2.48a3.16,3.16,0,0,0,2.588-1.177,5.04,5.04,0,0,0,.957-3.267,5.462,5.462,0,0,0-.928-3.389A3.025,3.025,0,0,0,54.121-11.523ZM68.877-5.557a6.359,6.359,0,0,1-1.3,4.307A4.74,4.74,0,0,1,63.8.244a5.372,5.372,0,0,1-2.041-.381V-3.1a2.93,2.93,0,0,0,1.816.615q2.158,0,2.158-3.2V-14h3.145ZM83.662,0H80.225l-1-3.115h-4.98L73.262,0H69.844l5.1-14h3.74ZM78.506-5.537,77-10.244a6.134,6.134,0,0,1-.234-1.26h-.078a5.341,5.341,0,0,1-.244,1.221L74.922-5.537ZM97.725,0H94.287l-1-3.115h-4.98L87.324,0H83.906L89-14h3.74ZM92.568-5.537l-1.5-4.707a6.134,6.134,0,0,1-.234-1.26h-.078a5.341,5.341,0,0,1-.244,1.221L88.984-5.537Zm15.342-5.9h-3.994V0h-3.164V-11.436H96.777V-14H107.91Z" transform="translate(0 22)" fill="#f9f9ff"/>
      <path id="Контур_768" data-name="Контур 768" d="M7.857-.562A6.047,6.047,0,0,1,4.8.146,4.423,4.423,0,0,1,1.6-.976,4.082,4.082,0,0,1,.434-4.066,4.315,4.315,0,0,1,1.711-7.295a4.654,4.654,0,0,1,3.4-1.248,6.9,6.9,0,0,1,2.355.369V-6.4a4.682,4.682,0,0,0-2.379-.562A2.554,2.554,0,0,0,3.167-6.2a2.809,2.809,0,0,0-.741,2.042,2.817,2.817,0,0,0,.665,2,2.344,2.344,0,0,0,1.8.709,2.5,2.5,0,0,0,1.078-.193V-3.275H4.283V-4.787H7.857Zm5.186.709A3.911,3.911,0,0,1,10.1-1.028,4.218,4.218,0,0,1,8.965-4.09a4.52,4.52,0,0,1,1.154-3.223,4,4,0,0,1,3.059-1.23,3.814,3.814,0,0,1,2.909,1.178A4.342,4.342,0,0,1,17.2-4.26a4.447,4.447,0,0,1-1.151,3.193A3.952,3.952,0,0,1,13.043.146Zm.082-7.061a1.905,1.905,0,0,0-1.582.747,3.115,3.115,0,0,0-.586,1.978,3.058,3.058,0,0,0,.586,1.975,1.877,1.877,0,0,0,1.535.727,1.9,1.9,0,0,0,1.553-.706,3.024,3.024,0,0,0,.574-1.96,3.277,3.277,0,0,0-.557-2.033A1.815,1.815,0,0,0,13.125-6.914ZM25.588-8.4,22.693,0H20.549L17.689-8.4h2.039L21.48-2.555a4.188,4.188,0,0,1,.17.838h.035a4.736,4.736,0,0,1,.182-.861L23.607-8.4ZM26.039.146a1.08,1.08,0,0,1-.762-.281.9.9,0,0,1-.3-.691.871.871,0,0,1,.313-.691,1.158,1.158,0,0,1,.782-.27,1.114,1.114,0,0,1,.776.272.888.888,0,0,1,.3.688.893.893,0,0,1-.308.7A1.161,1.161,0,0,1,26.039.146ZM35.5-3.639Q35.5.146,31.969.146q-3.422,0-3.422-3.7V-8.4h1.9v4.875q0,2.039,1.594,2.039,1.564,0,1.564-1.969V-8.4H35.5ZM43.371,0H36.6V-1.09L40.91-6.861h-4V-8.4h6.445v1.061L39.146-1.535h4.225Z" transform="translate(0 36.387)" fill="#f9f9ff"/>
    </g>
    <path id="Контур_764" data-name="Контур 764" d="M608.535,2774.48a37.656,37.656,0,1,1-26.627,11.029,37.538,37.538,0,0,1,26.627-11.029Zm10.816,61.781a26.439,26.439,0,0,1-37.251-24.125q0-1.242.1-2.384.107-1.189.323-2.368a1.146,1.146,0,0,0-2.257-.4q-.233,1.276-.35,2.565-.121,1.339-.121,2.591a28.729,28.729,0,0,0,40.488,26.219,1.147,1.147,0,1,0-.935-2.094ZM603.944,2786.1q1.132-.2,2.287-.3t2.3-.1a26.435,26.435,0,0,1,26.435,26.435q0,1.138-.1,2.262t-.288,2.241a1.149,1.149,0,0,0,2.266.386q.211-1.221.315-2.438t.105-2.452a28.737,28.737,0,0,0-28.737-28.737q-1.252,0-2.5.109t-2.484.328a1.15,1.15,0,0,0,.4,2.266Zm27.288,37.28a10.834,10.834,0,0,0-1.344-.711,1,1,0,0,0-.816,1.837h0a8.749,8.749,0,0,1,1.079.569,6.773,6.773,0,0,1,.9.663,2.947,2.947,0,0,1,.741,1,2.987,2.987,0,0,1,.263,1.227v1.473a.588.588,0,0,1-.587.588H615.856a.589.589,0,0,1-.588-.588v-1.473a2.987,2.987,0,0,1,.263-1.227,2.947,2.947,0,0,1,.741-1,8.843,8.843,0,0,1,3.208-1.706,13.959,13.959,0,0,1,4.181-.594,6.121,6.121,0,1,0-4.046-1.539,12.734,12.734,0,0,0-2.386.849,9.914,9.914,0,0,0-2.282,1.479,4.977,4.977,0,0,0-1.689,3.741v1.473a2.6,2.6,0,0,0,2.6,2.6h15.612a2.6,2.6,0,0,0,2.6-2.6v-1.473a4.977,4.977,0,0,0-1.689-3.741,8.83,8.83,0,0,0-1.146-.848Zm-10.462-8.937a4.085,4.085,0,1,0,2.892-1.2,4.079,4.079,0,0,0-2.892,1.2Zm-25.1-23.864a1.035,1.035,0,1,0,1.034,1.035,1.035,1.035,0,0,0-1.034-1.035Zm23.553,12.393h-20.2a3.1,3.1,0,0,0-3.091,3.092v2.55l11.345,8.439a3.074,3.074,0,0,0,3.69,0l11.345-8.439v-2.55a3.1,3.1,0,0,0-3.091-3.092Zm1.03,4.606v-1.514a1.032,1.032,0,0,0-1.03-1.031h-20.2a1.031,1.031,0,0,0-1.03,1.031v1.514l10.514,7.82a1.025,1.025,0,0,0,1.23,0l10.514-7.82Zm-6.869,16.827.016-.021a6.013,6.013,0,0,1,.865-.939,10.145,10.145,0,0,1,1.178-.888c.11-.07.223-.141.34-.212H599.022a1.032,1.032,0,0,1-1.03-1.031v-8.6l-2.061-1.533v10.132a3.1,3.1,0,0,0,3.091,3.091Zm-19-13.479h-8.8a1.023,1.023,0,0,0,0,2.045h8.777v-1.789a1.581,1.581,0,0,1,.021-.256Zm14.9-17.534a1.023,1.023,0,0,0-.608-.935l-12.09-5.367a1.021,1.021,0,0,0-.831,0l-12.039,5.368a1.022,1.022,0,0,0-.606.933v2.709c0,.009,0,.017,0,.026s0,.017,0,.026a1.022,1.022,0,0,0,1.022,1.022.91.91,0,0,1,.869,1.022v9.535c0,.021,0,.042,0,.063s0,.042,0,.063a1.022,1.022,0,0,0,1.023,1.022h8.359a1.569,1.569,0,0,1-.023-.268v-2.55a4.634,4.634,0,0,1,.866-2.7V2798.2a1.022,1.022,0,1,1,2.045,0v3.548a4.629,4.629,0,0,1,1.747-.34h.3V2798.2a1.022,1.022,0,1,1,2.045,0v3.208h2.045V2798.2a1.022,1.022,0,1,1,2.045,0v3.208H607.5V2798.2c0-.24.055-1.022.767-1.022a1.022,1.022,0,0,0,1.022-1.022c0-.009,0-.017,0-.026s0-.017,0-.026v-2.709ZM589.1,2806.839V2798.2a1.022,1.022,0,1,0-2.045,0v8.639Zm4.09,0V2798.2a1.022,1.022,0,1,0-2.045,0v8.639Zm14.058-11.758v-1.022l-11.067-4.914-11.018,4.913v1.023Zm26.291-7.944a35.354,35.354,0,1,0,10.355,25A35.245,35.245,0,0,0,633.534,2787.137Z" transform="translate(354.623 -2722.531)" fill-rule="evenodd" fill="url(#linear-gradient)"/>
  </g>
</svg>
