<svg xmlns="http://www.w3.org/2000/svg" width="56.649" height="56.648" viewBox="0 0 56.649 56.648"><defs><style>.a{fill:#4aa85d;}</style></defs><g transform="translate(-0.001 -0.004)"><g transform="translate(0.001 0.004)"><g transform="translate(0 0)"><path class="a" d="M56.638,21.661a.893.893,0,0,0-.039-.192.945.945,0,0,0-.054-.162.847.847,0,0,0-.094-.145.89.89,0,0,0-.126-.146c-.015-.013-.022-.031-.038-.044l-9.08-7.052V6.61a2.833,2.833,0,0,0-2.833-2.833H34.143L30.046.6A2.8,2.8,0,0,0,26.6.6L22.5,3.778H12.273A2.833,2.833,0,0,0,9.44,6.61v7.309L.362,20.971c-.016.013-.023.031-.038.044a.886.886,0,0,0-.126.146.843.843,0,0,0-.094.145.932.932,0,0,0-.054.162.9.9,0,0,0-.039.189c0,.02-.011.037-.011.057V53.82a2.8,2.8,0,0,0,.554,1.666c.006.009.007.019.013.026s.021.016.03.026a2.819,2.819,0,0,0,2.232,1.113H53.817a2.819,2.819,0,0,0,2.24-1.118c.008-.009.019-.012.025-.022s.008-.018.013-.026a2.8,2.8,0,0,0,.554-1.666v-32.1C56.65,21.7,56.639,21.68,56.638,21.661ZM27.757,2.086a.905.905,0,0,1,1.126,0l2.178,1.691H25.586ZM3.069,54.764,27.757,35.586a.907.907,0,0,1,1.126,0l24.7,19.178Zm51.693-1.472L30.046,34.1a2.8,2.8,0,0,0-3.443,0L1.886,53.292V23.155L17.359,35.17a.945.945,0,0,0,1.158-1.493L2.8,21.472,9.44,16.31v7.3a.944.944,0,1,0,1.888,0v-17a.944.944,0,0,1,.944-.944h32.1a.944.944,0,0,1,.944.944v17a.944.944,0,1,0,1.888,0v-7.3l6.642,5.162L38.1,33.7a.944.944,0,1,0,1.158,1.492l15.5-12.036V53.292Z" transform="translate(-0.001 -0.004)"/><path class="a" d="M176.235,83.344V79.567A11.33,11.33,0,1,0,164.9,90.9a.944.944,0,0,0,0-1.888,9.442,9.442,0,1,1,9.442-9.442v3.777a1.888,1.888,0,0,1-3.777,0V79.567a.944.944,0,1,0-1.888,0,3.777,3.777,0,1,1-3.777-3.777.944.944,0,0,0,0-1.888,5.665,5.665,0,1,0,3.817,9.839,3.766,3.766,0,0,0,7.513-.4Z" transform="translate(-136.581 -60.687)"/></g></g></g></svg>