<svg xmlns="http://www.w3.org/2000/svg" width="32.472" height="25.256" viewBox="0 0 32.472 25.256">
  <path id="Фигура_7" data-name="Фигура 7" d="M890.472,2775.046a4.294,4.294,0,0,1-.521,2.025l-10.253-11.9,10.141-9.2a4.291,4.291,0,0,1,.632,2.236v16.837Zm-16.236-7.711,14.112-12.805a3.9,3.9,0,0,0-1.935-.53H862.059a3.886,3.886,0,0,0-1.933.53Zm3.934-.775-3.267,2.966a.991.991,0,0,1-1.336,0l-3.267-2.966-10.383,12.048a3.907,3.907,0,0,0,2.141.647h24.354a3.907,3.907,0,0,0,2.14-.647Zm-19.538-10.587a4.29,4.29,0,0,0-.632,2.236v16.837a4.28,4.28,0,0,0,.521,2.025l10.252-11.9Z" transform="translate(-858 -2754)" fill="#fff"/>
</svg>
