<svg xmlns="http://www.w3.org/2000/svg" width="19" height="19" viewBox="0 0 19 19">
  <path id="Объединение_1" data-name="Объединение 1" d="M-644-135a1,1,0,0,1-.707-.293l-3.435-3.435a8.491,8.491,0,0,1-5.3,1.84A8.565,8.565,0,0,1-662-145.445,8.565,8.565,0,0,1-653.444-154a8.565,8.565,0,0,1,8.555,8.555,8.491,8.491,0,0,1-1.839,5.3l3.435,3.436A1,1,0,0,1-643-136a1,1,0,0,1-.293.707A1,1,0,0,1-644-135Zm-9.445-17A6.563,6.563,0,0,0-660-145.445a6.563,6.563,0,0,0,6.555,6.556,6.512,6.512,0,0,0,4.636-1.92,6.513,6.513,0,0,0,1.92-4.636A6.563,6.563,0,0,0-653.444-152Z" transform="translate(662 154)" fill="#4aa85d" />
</svg>