<svg id="new" xmlns="http://www.w3.org/2000/svg" width="37.036" height="46.25" viewBox="0 0 37.036 46.25">
  <g id="Сгруппировать_347" data-name="Сгруппировать 347">
    <g id="Сгруппировать_346" data-name="Сгруппировать 346">
      <path id="Контур_454" data-name="Контур 454" d="M87.639,13.947,74.089.4a1.355,1.355,0,0,0-.958-.4H52.355A1.355,1.355,0,0,0,51,1.355V44.9a1.355,1.355,0,0,0,1.355,1.355H86.681A1.355,1.355,0,0,0,88.036,44.9V14.9A1.355,1.355,0,0,0,87.639,13.947ZM85.326,43.54H53.71V2.71H72.57L85.326,15.466Z" transform="translate(-51 0)" fill="#afe2b9"/>
    </g>
  </g>
  <g id="Сгруппировать_349" data-name="Сгруппировать 349" transform="translate(12.646 17.253)">
    <g id="Сгруппировать_348" data-name="Сгруппировать 348" transform="translate(0)">
      <path id="Контур_455" data-name="Контур 455" d="M201.388,195.517h-3.162v-3.162a1.355,1.355,0,0,0-2.71,0v3.162h-3.162a1.355,1.355,0,0,0,0,2.71h3.162v3.162a1.355,1.355,0,0,0,2.71,0v-3.162h3.162a1.355,1.355,0,0,0,0-2.71Z" transform="translate(-191 -191)" fill="#afe2b9"/>
    </g>
  </g>
</svg>
