<svg xmlns="http://www.w3.org/2000/svg" width="28.897" height="28.892" viewBox="0 0 28.897 28.892">
  <path id="Фигура_6" data-name="Фигура 6" d="M586.735,2773l-.144-.439a4.068,4.068,0,0,0-2.483-2.345l-3.8-1.038a3.722,3.722,0,0,0-3.251.853l-1.373,1.374a14.584,14.584,0,0,1-10.255-10.259l1.373-1.373a3.723,3.723,0,0,0,.85-3.251l-1.035-3.8a4.064,4.064,0,0,0-2.348-2.483l-.433-.144a3.438,3.438,0,0,0-3.211.759l-2.057,2.057a3.826,3.826,0,0,0-.6,1.411,24.255,24.255,0,0,0,24.477,24.534,3.785,3.785,0,0,0,1.477-.6l2.057-2.057A3.44,3.44,0,0,0,586.735,2773Z" transform="translate(-557.968 -2749.969)" fill="#fff"/>
</svg>
