<svg xmlns="http://www.w3.org/2000/svg" width="55" height="55" viewBox="0 0 47.06 47.042"><defs><style>.a{fill:#4aa85d;}</style></defs><g transform="translate(-880.768 -454.833)"><path class="a" d="M959.9,535.085c-3.079,2.183-6.194,2.868-9.522,1.515a9.081,9.081,0,0,1-5.9-7.826c-.077-.642-.223-1.457.739-1.571,1.008-.12,1.062.668,1.137,1.4a7.492,7.492,0,1,0,3.222-6.936c-.629.426-1.334,1.23-1.982.26-.676-1.011.383-1.447,1.02-1.875a9.373,9.373,0,0,1,12.278,13.98c.641.5,1.263,1.03,1.935,1.483a1.041,1.041,0,0,0,.81.046,2.2,2.2,0,0,1,2.542.644c1.411,1.469,2.871,2.889,4.309,4.332a2.837,2.837,0,1,1-3.969,4.034c-1.473-1.463-3-2.879-4.376-4.428a2.555,2.555,0,0,1-.67-2.044c.366-.962-.1-1.345-.613-1.871C960.532,535.9,960.254,535.511,959.9,535.085Zm3.292,3.479c1.641,1.636,3.163,3.206,4.763,4.693a1.4,1.4,0,0,0,1.278.079,1.214,1.214,0,0,0,.118-1.151c-1.577-1.653-3.232-3.233-4.9-4.869Z" transform="translate(-43.696 -43.712)"/><path class="a" d="M880.829,508.065q0-7.638,0-15.277a2.472,2.472,0,0,1,.064-1.041c.154-.3.546-.7.808-.679a1.389,1.389,0,0,1,.937.67,2.592,2.592,0,0,1,.079,1.153q0,15.042,0,30.084c0,1.774.1,1.879,1.855,1.88q14.161,0,28.321,0c1.666,0,1.789-.13,1.793-1.825,0-.94.007-1.88,0-2.82-.006-.688.292-1.264.988-1.127a1.532,1.532,0,0,1,.857,1.126,28.523,28.523,0,0,1,.044,3.4,2.864,2.864,0,0,1-3.146,3.13q-11.575.017-23.15,0-2.938,0-5.876,0c-2.59,0-3.571-.966-3.572-3.518Q880.827,515.645,880.829,508.065Z" transform="translate(-0.028 -24.874)"/><path class="a" d="M914.658,464.25c-1.567,0-3.006.012-4.446,0a2.831,2.831,0,0,1-3.075-3.066c-.015-1.44,0-2.881,0-4.39-.311-.026-.534-.061-.757-.061q-10.981,0-21.962,0c-1.6,0-1.686.125-1.732,1.764-.021.764.311,1.91-.906,1.927-1.328.018-.961-1.178-.965-1.971-.014-2.665.933-3.609,3.584-3.612,7.673-.008,15.346-.023,23.019.026a2.912,2.912,0,0,1,1.8.772q3.355,3.2,6.56,6.559a2.8,2.8,0,0,1,.732,1.7c.073,2.9.033,5.793.034,8.69,0,.72.05,1.551-.971,1.524s-.913-.877-.914-1.581C914.656,469.833,914.658,467.134,914.658,464.25Zm-2.009-1.9-3.627-3.727c0,.725,0,1.664,0,2.6a.987.987,0,0,0,1.065,1.121C911.058,462.367,912.029,462.353,912.649,462.353Z"/><path class="a" d="M911.068,492.732q-5.283,0-10.566,0c-.693,0-1.463.011-1.5-.892-.038-1,.767-1,1.506-1q10.683.006,21.367,0c.693,0,1.464-.012,1.5.891.037.995-.766,1-1.506,1Q916.469,492.726,911.068,492.732Z" transform="translate(-12.518 -24.72)"/><path class="a" d="M911.2,510.736q-5.344,0-10.687,0c-.743,0-1.54-.013-1.5-1,.033-.906.8-.894,1.5-.894q10.687.007,21.374,0c.691,0,1.467-.025,1.506.88.042.984-.748,1.019-1.5,1.018Q916.54,510.729,911.2,510.736Z" transform="translate(-12.518 -37.075)"/><path class="a" d="M911.06,582.706q-5.285,0-10.57,0c-.693,0-1.464.02-1.5-.887-.037-.989.76-1.011,1.5-1.01q10.687.006,21.374,0c.7,0,1.462,0,1.5.894.04.995-.762,1-1.5,1Q916.462,582.7,911.06,582.706Z" transform="translate(-12.509 -86.48)"/><path class="a" d="M907.328,474.727c-2.308,0-4.615-.005-6.923,0-.718,0-1.429-.081-1.41-.987.017-.824.684-.912,1.364-.911q7.04.008,14.081-.005c.717,0,1.439.081,1.408.986s-.781.914-1.479.912c-2.347-.008-4.694,0-7.041,0Z" transform="translate(-12.512 -12.351)"/><path class="a" d="M905.935,526.815c1.875,0,3.752-.055,5.621.04a1.6,1.6,0,0,1,1.226.86c.14.779-.528.989-1.237.988-3.749-.008-7.5.025-11.246-.043a1.579,1.579,0,0,1-1.222-.863c-.145-.787.529-.99,1.234-.986C902.186,526.822,904.06,526.815,905.935,526.815Z" transform="translate(-12.555 -49.403)"/><path class="a" d="M905.83,564.7c-1.835,0-3.671-.007-5.506,0-.7,0-1.381-.191-1.242-.979a1.57,1.57,0,0,1,1.213-.87q5.563-.1,11.128,0a1.555,1.555,0,0,1,1.176.9c.155.721-.483.948-1.145.946Q908.641,564.7,905.83,564.7Z" transform="translate(-12.559 -74.122)"/><path class="a" d="M905.128,546.729c-1.6,0-3.206-.009-4.808,0-.689.005-1.327-.118-1.332-.943s.628-.958,1.32-.956q4.867.013,9.733,0c.714,0,1.376.213,1.236.99-.066.363-.78.837-1.226.865C908.416,546.791,906.77,546.729,905.128,546.729Z" transform="translate(-12.507 -61.783)"/><path class="a" d="M882.058,481.369c-.484-.669-.939-1.027-.943-1.389a.868.868,0,0,1,1.728-.1C882.881,480.237,882.467,480.644,882.058,481.369Z" transform="translate(-0.238 -16.675)"/><path class="a" d="M949.211,535.46c-.647.425-1.025.862-1.4.857-.291,0-.852-.625-.8-.849a1.4,1.4,0,0,1,.919-.886C948.222,534.532,948.6,535.017,949.211,535.46Z" transform="translate(-45.475 -54.743)"/></g></svg>