<svg id="process_1_" data-name="process (1)" xmlns="http://www.w3.org/2000/svg" width="46.018" height="45.989" viewBox="0 0 46.018 45.989">
  <path id="Контур_456" data-name="Контур 456" d="M44.669,18.072H40.407A18.1,18.1,0,0,0,39.3,15.285l3.343-3.343a1.349,1.349,0,0,0,0-1.908L36.691,4.085a1.349,1.349,0,0,0-1.908,0L31.545,7.323a18.1,18.1,0,0,0-2.839-1.214v-4.6A1.349,1.349,0,0,0,27.357.164H18.944A1.349,1.349,0,0,0,17.6,1.513v4.5a18.089,18.089,0,0,0-2.976,1.223L11.7,4.32a1.349,1.349,0,0,0-1.908,0L3.848,10.269a1.349,1.349,0,0,0,0,1.908l2.937,2.937a18.093,18.093,0,0,0-1.2,2.959H1.349A1.349,1.349,0,0,0,0,19.421v8.413a1.349,1.349,0,0,0,1.349,1.349H5.732a18.1,18.1,0,0,0,1.189,2.764L3.789,35.079a1.349,1.349,0,0,0,0,1.908l5.949,5.949a1.349,1.349,0,0,0,1.908,0L14.883,39.7a18.109,18.109,0,0,0,2.541,1.035V44.8a1.349,1.349,0,0,0,1.349,1.349h8.413A1.349,1.349,0,0,0,28.535,44.8v-4.06a18.1,18.1,0,0,0,2.747-1.133l3.354,3.354a1.349,1.349,0,0,0,1.908,0l5.949-5.949a1.349,1.349,0,0,0,0-1.908l-3.332-3.332a18.133,18.133,0,0,0,1.1-2.593h4.409a1.349,1.349,0,0,0,1.349-1.349V19.421A1.349,1.349,0,0,0,44.669,18.072ZM43.32,26.485H39.26a1.349,1.349,0,0,0-1.3.995,15.414,15.414,0,0,1-1.631,3.84,1.349,1.349,0,0,0,.205,1.644l3.1,3.1L35.59,40.1l-3.116-3.116a1.349,1.349,0,0,0-1.637-.209,15.4,15.4,0,0,1-3.985,1.644,1.349,1.349,0,0,0-1.015,1.307v3.727H20.122V39.72a1.349,1.349,0,0,0-1.012-1.306,15.414,15.414,0,0,1-3.8-1.547,1.349,1.349,0,0,0-1.624.217l-2.991,2.99L6.651,36.032l2.906-2.906a1.349,1.349,0,0,0,.2-1.657,15.414,15.414,0,0,1-1.72-3.99,1.349,1.349,0,0,0-1.3-.995H2.7V20.77H6.614a1.349,1.349,0,0,0,1.311-1.032,15.4,15.4,0,0,1,1.692-4.18,1.349,1.349,0,0,0-.209-1.637l-2.7-2.7,4.041-4.041,2.68,2.68a1.349,1.349,0,0,0,1.644.205,15.394,15.394,0,0,1,4.192-1.722,1.349,1.349,0,0,0,1.026-1.31V2.862h5.715V7.113a1.349,1.349,0,0,0,1,1.3,15.414,15.414,0,0,1,4.059,1.739,1.349,1.349,0,0,0,1.657-.2l3.012-3.012,4.041,4.041-3.1,3.1a1.349,1.349,0,0,0-.217,1.624,15.406,15.406,0,0,1,1.6,4.03,1.349,1.349,0,0,0,1.311,1.032H43.32Z" transform="translate(0 -0.164)" fill="#afe2b9"/>
  <path id="Контур_457" data-name="Контур 457" d="M127.114,145.944a1.357,1.357,0,0,0,1.463.576l2.389-.6a1.348,1.348,0,0,0-.356-2.656,8.019,8.019,0,0,1,14.3,2,1.349,1.349,0,0,0,2.568-.826,10.718,10.718,0,0,0-19.467-2.1,1.349,1.349,0,0,0-2.2,1.56l1.295,2.042Z" transform="translate(-114.308 -124.698)" fill="#afe2b9"/>
  <path id="Контур_458" data-name="Контур 458" d="M162.6,269.04a1.357,1.357,0,0,0-1.482-.605l-2.389.6a1.349,1.349,0,0,0,.329,2.657h.026a8.019,8.019,0,0,1-14.3-2,1.349,1.349,0,0,0-2.568.826,10.718,10.718,0,0,0,19.467,2.1,1.349,1.349,0,0,0,2.2-1.56Z" transform="translate(-129.369 -244.269)" fill="#afe2b9"/>
</svg>
