<svg id="flag" xmlns="http://www.w3.org/2000/svg" width="35.158" height="40" viewBox="0 0 35.158 40">
  <g id="Сгруппировать_350" data-name="Сгруппировать 350">
    <path id="Контур_459" data-name="Контур 459" d="M61.7,15.234,65.95,8.853a1.173,1.173,0,0,0-.975-1.822H53.257A1.173,1.173,0,0,1,52.085,5.86h0a3.52,3.52,0,0,0-3.516-3.516h-8.4a3.515,3.515,0,0,0-6.83,1.172V37.656H32.163a1.172,1.172,0,0,0,0,2.344h9.375a1.172,1.172,0,0,0,0-2.344H40.366V21.094h9.577a3.521,3.521,0,0,0,3.314,2.344H64.975a1.173,1.173,0,0,0,.975-1.822ZM38.022,37.656H35.679V3.516a1.172,1.172,0,0,1,2.344,0ZM49.741,18.75H40.366V4.688h8.2a1.173,1.173,0,0,1,1.172,1.172Zm3.516,2.344a1.173,1.173,0,0,1-1.172-1.172V9.173a3.5,3.5,0,0,0,1.172.2h9.529l-3.473,5.209a1.172,1.172,0,0,0,0,1.3l3.473,5.209Z" transform="translate(-30.991)" fill="#afe2b9"/>
  </g>
</svg>
