<svg xmlns="http://www.w3.org/2000/svg" width="55" height="55" viewBox="0 0 56.754 56.69"><defs><style>.a{fill:#4aa85d;}</style></defs><g transform="translate(-337.357 -445.734)"><path class="a" d="M373.274,451.9c.387-3.021-.666-4.256-3.506-4.256q-13.4,0-26.8.01c-2.683,0-3.562.9-3.569,3.607q-.018,6.146-.008,12.293c0,2.331,1.053,3.365,3.389,3.374,2.473.009,4.947,0,7.42.014,1.2.007,1.531.336,1.412,1.542-.108,1.091-.33,2.172-.5,3.25a4.587,4.587,0,0,0,3.487-3.491,1.5,1.5,0,0,1,1.8-1.319c.88.071,1.785-.071,2.65.063.382.059.693.568,1.037.873-.336.312-.717.929-1,.887-1.843-.268-2.837.439-3.714,2.117-1.088,2.081-3.2,2.969-5.522,3.2-1.15.116-1.554-.474-1.184-1.566.4-1.171.761-2.351,1.195-3.7-2.55,0-4.833,0-7.115,0-3.375,0-5.252-1.888-5.255-5.29q-.006-6.312,0-12.625c.006-3.221,1.943-5.143,5.188-5.145q13.732-.008,27.464,0c3.221,0,5.134,1.934,5.171,5.182.037,3.178.005,2.831-2.812,2.835-1.477,0-2.954-.022-4.43.007A2.875,2.875,0,0,0,365,456.821q-.044,5.537,0,11.074A2.845,2.845,0,0,0,368,470.9a4.331,4.331,0,0,0,.664,0c1.527-.176,2.7.073,3.486,1.707.422.879,1.558,1.416,2.371,2.106l.288-.264c-.118-.6-.256-1.2-.351-1.8-.229-1.444.008-1.731,1.443-1.735,3.1-.008,6.2,0,9.3,0,2.546,0,3.537-1,3.54-3.561q.007-5.094,0-10.188c-.007-2.345-1.031-3.372-3.37-3.4-1.366-.014-2.737.059-4.094-.051a1.524,1.524,0,0,1-1.14-.846c-.139-.712.451-.979,1.14-.973,1.624.015,3.25-.03,4.872.023a4.582,4.582,0,0,1,4.474,4.473q.095,5.979,0,11.959a4.609,4.609,0,0,1-4.647,4.422c-3.135.027-6.27.007-9.622.007.319.911.586,1.691.864,2.468.376,1.048.021,1.582-1.1,1.516a6.946,6.946,0,0,1-5.6-3.1,2.024,2.024,0,0,0-1.792-.912,9.9,9.9,0,0,1-3.381-.737,3.923,3.923,0,0,1-2.186-3.614c-.045-4.023-.072-8.047,0-12.07a4.575,4.575,0,0,1,4.522-4.422c.921-.036,1.845-.007,2.768-.007Z" transform="translate(-0.088)"/><path class="a" d="M357.873,563.334a6.627,6.627,0,1,1,6.672-6.57A6.655,6.655,0,0,1,357.873,563.334Zm-.018-11.319a4.7,4.7,0,1,0,4.764,4.632A4.661,4.661,0,0,0,357.856,552.015Z" transform="translate(-9.658 -73.528)"/><path class="a" d="M476.873,563.315a6.632,6.632,0,1,1,6.857-6.627A6.667,6.667,0,0,1,476.873,563.315ZM477.121,552a4.7,4.7,0,1,0,4.677,4.715A4.686,4.686,0,0,0,477.121,552Z" transform="translate(-93.636 -73.509)"/><path class="a" d="M348.151,600.879a10,10,0,0,1,10.639,8.435,2.67,2.67,0,0,1,.071,1.2,5.543,5.543,0,0,1-.823,1.221,10.019,10.019,0,0,1-1.01-1.06c-.131-.18-.066-.5-.093-.757a7.826,7.826,0,0,0-7.079-7.041,15.866,15.866,0,0,0-4.6.236,7.7,7.7,0,0,0-5.9,6.92c-.07.745.043,1.783-1.094,1.664-1.185-.124-.892-1.188-.806-1.946A9.993,9.993,0,0,1,348.151,600.879Z" transform="translate(0 -109.31)"/><path class="a" d="M467.249,600.935a10.037,10.037,0,0,1,10.855,8.531,3.585,3.585,0,0,1,.05,1.42c-.1.345-.515.8-.824.826s-.723-.371-.944-.686c-.167-.238-.107-.639-.137-.969a7.805,7.805,0,0,0-6.99-7.125,15.7,15.7,0,0,0-4.817.242,7.687,7.687,0,0,0-5.779,6.788c-.019.183-.044.366-.055.55-.039.685-.219,1.321-1.057,1.239s-.854-.759-.839-1.426a9.946,9.946,0,0,1,9.31-9.387C466.5,600.917,466.98,600.935,467.249,600.935Z" transform="translate(-84.101 -109.346)"/></g></svg>