<svg xmlns="http://www.w3.org/2000/svg" width="44.971" height="47.969" viewBox="0 0 44.971 47.969">
  <defs>
    <style>.a{fill:#fff;}</style>
  </defs>
  <g transform="translate(0)">
    <path class="a" d="M49.728,0H27.243a5.628,5.628,0,0,0-5.621,5.621H17.405A1.405,1.405,0,0,0,16,7.027V46.563a1.405,1.405,0,0,0,1.405,1.405H42.7a1.405,1.405,0,0,0,1.405-1.405V42.347h4.216a1.405,1.405,0,0,0,1.405-1.405V8.432H53.7A1.406,1.406,0,0,0,55.029,7.5a5.624,5.624,0,0,0-5.3-7.5ZM41.3,45.158H18.811V8.432h2.811v32.51a1.405,1.405,0,0,0,1.405,1.405H41.3Zm5.621-5.621H24.432V5.621a2.811,2.811,0,1,1,5.462.937,1.405,1.405,0,0,0,1.325,1.874h15.7ZM32.864,5.621a5.588,5.588,0,0,0-.754-2.811H49.728a2.814,2.814,0,0,1,2.811,2.811Z" transform="translate(-16)" />
    <path class="a" d="M414.432,125.216a4.216,4.216,0,0,0-8.432,0v24.226a10.929,10.929,0,0,0,3.222,7.779,1.405,1.405,0,0,0,1.987,0,10.929,10.929,0,0,0,3.222-7.779Zm-5.621,12.648h2.811v2.811h-2.811Zm1.405-14.053a1.407,1.407,0,0,1,1.405,1.405v9.837h-2.811v-9.837A1.407,1.407,0,0,1,410.216,123.811Zm0,30.223a8.133,8.133,0,0,1-1.405-4.592v-5.956h2.811v5.956A8.133,8.133,0,0,1,410.216,154.033Z" transform="translate(-369.461 -109.664)" />
    <path class="a" d="M197.405,123.811h8.432a1.405,1.405,0,1,0,0-2.811h-8.432a1.405,1.405,0,1,0,0,2.811Z" transform="translate(-179.136 -109.664)" />
    <path class="a" d="M151.459,181H137.405a1.405,1.405,0,1,0,0,2.811h14.053a1.405,1.405,0,1,0,0-2.811Z" transform="translate(-124.757 -164.042)" />
    <path class="a" d="M137.405,243.811h2.811a1.405,1.405,0,1,0,0-2.811h-2.811a1.405,1.405,0,1,0,0,2.811Z" transform="translate(-124.757 -218.421)" />
    <path class="a" d="M151.459,301H137.405a1.405,1.405,0,1,0,0,2.811h14.053a1.405,1.405,0,1,0,0-2.811Z" transform="translate(-124.757 -272.8)" />
    <path class="a" d="M145.744,361h-8.338a1.405,1.405,0,0,0,0,2.811h8.338a1.405,1.405,0,1,0,0-2.811Z" transform="translate(-124.757 -327.178)" />
    <path class="a" d="M232.12,241h-5.715a1.405,1.405,0,1,0,0,2.811h5.715a1.405,1.405,0,1,0,0-2.811Z" transform="translate(-205.419 -218.421)" />
  </g>
</svg>