<svg xmlns="http://www.w3.org/2000/svg" width="45.439" height="45.387" viewBox="0 0 45.439 45.387">
  <defs>
    <style>.a{fill:#fff;}</style>
  </defs>
  <g transform="translate(0 0)">
    <g transform="translate(0)">
      <path class="a" d="M-1960.643-686.959q0-7.666,0-15.333a7.078,7.078,0,0,1,7.358-7.365q10.635-.006,21.271,0a7.086,7.086,0,0,1,7.352,7.286c.011,4.4,0,8.8.007,13.205a1.864,1.864,0,0,1-1,1.827,1.429,1.429,0,0,1-1.805-.189,2.888,2.888,0,0,1-.717-1.689c-.057-4.253-.027-8.508-.028-12.762,0-2.74-1.4-4.134-4.149-4.135q-10.325,0-20.65,0c-2.685,0-4.091,1.408-4.091,4.1q0,15.067,0,30.133c0,2.633,1.42,4.058,4.039,4.061,3.545,0,7.09,0,10.635,0,1.283,0,2.071.692,2.063,1.785s-.8,1.755-2.1,1.757c-3.693,0-7.386.012-11.079,0a7.062,7.062,0,0,1-7.105-7.081C-1960.655-676.561-1960.643-681.76-1960.643-686.959Z" transform="translate(1960.647 709.66)" />
      <path class="a" d="M-1842.907-607.7a5.157,5.157,0,0,1,4.595,3.108,4.862,4.862,0,0,1-.81,5.684c-3.233,3.4-6.6,6.668-9.937,9.972a2.37,2.37,0,0,1-1,.538q-3.354.952-6.725,1.846a1.776,1.776,0,0,1-2.325-2.362c.643-2.2,1.3-4.4,2-6.589a2.87,2.87,0,0,1,.688-1.1q4.74-4.777,9.517-9.517A5.487,5.487,0,0,1-1842.907-607.7Zm-11.88,16.811a7.109,7.109,0,0,0,5.025-2.355c.793-.792,1.578-1.593,2.383-2.373.882-.854,1.784-1.688,2.573-2.432l-2.557-2.657c-2.034,2.05-4.094,4.119-6.142,6.2a1.747,1.747,0,0,0-.4.669C-1854.212-592.886-1854.482-591.923-1854.786-590.891Zm12.635-10.036a1.7,1.7,0,0,0,.26-2.68,1.7,1.7,0,0,0-2.666.252Z" transform="translate(1883.192 631.801)" />
      <path class="a" d="M-1926.1-630.19c1.249-1.506,2.43-2.934,3.616-4.359a1.826,1.826,0,0,1,2.691-.515,1.788,1.788,0,0,1,.088,2.731c-1.269,1.554-2.54,3.106-3.844,4.631a3.085,3.085,0,0,1-4.917.185c-.5-.5-1-1-1.487-1.518a1.809,1.809,0,0,1-.143-2.732,1.8,1.8,0,0,1,2.664.216C-1927.007-631.141-1926.605-630.71-1926.1-630.19Z" transform="translate(1937.74 652.997)" />
      <path class="a" d="M-1926.156-584.788c1.167-1.407,2.257-2.722,3.349-4.036a8.691,8.691,0,0,1,.641-.732,1.73,1.73,0,0,1,2.332-.144,1.671,1.671,0,0,1,.363,2.368c-1.465,1.848-2.946,3.689-4.528,5.436a2.9,2.9,0,0,1-4.016.165,22.736,22.736,0,0,1-2.241-2.259,1.694,1.694,0,0,1,.135-2.393,1.749,1.749,0,0,1,2.4-.021C-1927.2-585.929-1926.732-585.389-1926.156-584.788Z" transform="translate(1937.77 618.347)" />
      <path class="a" d="M-1926.16-676.17c1.166-1.408,2.254-2.724,3.344-4.039a8.931,8.931,0,0,1,.638-.734,1.784,1.784,0,0,1,2.339-.161,1.668,1.668,0,0,1,.373,2.366c-1.463,1.85-2.945,3.692-4.526,5.44a2.9,2.9,0,0,1-4.015.17,23.075,23.075,0,0,1-2.24-2.262,1.7,1.7,0,0,1,.119-2.395,1.74,1.74,0,0,1,2.4-.035C-1927.186-677.326-1926.714-676.759-1926.16-676.17Z" transform="translate(1937.768 688.13)" />
      <path class="a" d="M-1871.06-661.353c.854,0,1.712-.044,2.563.011a1.753,1.753,0,0,1,1.8,1.788,1.748,1.748,0,0,1-1.841,1.746q-2.518.072-5.04.014a1.757,1.757,0,0,1-1.882-1.8,1.771,1.771,0,0,1,1.925-1.756c.824-.032,1.651-.006,2.476-.006Z" transform="translate(1895.595 672.784)" />
      <path class="a" d="M-1871.074-611.64c-.856,0-1.712.019-2.567,0a1.729,1.729,0,0,1-1.8-1.774,1.73,1.73,0,0,1,1.82-1.758q2.566-.034,5.134,0a1.758,1.758,0,0,1,1.809,1.779,1.763,1.763,0,0,1-1.828,1.758c-.855.02-1.711,0-2.567,0Z" transform="translate(1895.58 637.521)" />
    </g>
  </g>
</svg>