<svg xmlns="http://www.w3.org/2000/svg" width="59.691" height="57.204" viewBox="0 0 59.691 57.204">
  <defs>
    <style>.a{fill:#fff;}</style>
  </defs>
  <path class="a" d="M97.768,24.871A12.435,12.435,0,1,1,110.2,12.436,12.449,12.449,0,0,1,97.768,24.871Zm0-21.14a8.7,8.7,0,1,0,8.705,8.705,8.715,8.715,0,0,0-8.705-8.705Zm0,0" transform="translate(-75.384)" />
  <path class="a" d="M338.032,358.742H324.352A4.357,4.357,0,0,1,320,354.389v-8.7a4.357,4.357,0,0,1,4.352-4.353h13.679a4.357,4.357,0,0,1,4.352,4.353v8.7A4.357,4.357,0,0,1,338.032,358.742Zm-13.679-13.679a.622.622,0,0,0-.622.622v8.7a.622.622,0,0,0,.622.622h13.679a.622.622,0,0,0,.622-.622v-8.7a.622.622,0,0,0-.622-.622Zm0,0" transform="translate(-282.693 -301.538)" />
  <path class="a" d="M373.238,269.679h-8.7a1.866,1.866,0,0,1-1.865-1.865v-5.6a6.218,6.218,0,0,1,12.435,0v5.6A1.866,1.866,0,0,1,373.238,269.679Zm-6.839-3.731h4.974v-3.731a2.487,2.487,0,0,0-4.974,0Zm0,0" transform="translate(-320.387 -226.155)" />
  <path class="a" d="M31.089,278.384H1.865A1.866,1.866,0,0,1,0,276.519v-8.705A11.828,11.828,0,0,1,11.814,256H33.576a11.779,11.779,0,0,1,5.917,1.592,1.865,1.865,0,1,1-1.878,3.223,8.059,8.059,0,0,0-4.039-1.084H11.814a8.093,8.093,0,0,0-8.083,8.083v6.84H31.089a1.865,1.865,0,0,1,0,3.731Zm0,0" transform="translate(0 -226.155)" />
</svg>