<svg xmlns="http://www.w3.org/2000/svg" width="52.044" height="52.56" viewBox="0 0 52.044 52.56">
  <defs>
    <style>.a{fill:#fff;}</style>
  </defs>
  <g transform="translate(0)">
    <path class="a" d="M-1704-277.359l.884.95a3.872,3.872,0,0,1,.117,5.6,3.861,3.861,0,0,1-5.668-.113q-2.907-2.825-5.73-5.735a2.16,2.16,0,0,0-1.705-.707q-16.884.03-33.767.005c-1.749,0-2.209-.455-2.209-2.181q0-20.216,0-40.432c0-1.735.482-2.214,2.177-2.214q23.864,0,47.727,0c1.61,0,2.133.524,2.133,2.159q0,20.216,0,40.432c0,1.748-.49,2.227-2.265,2.237C-1702.777-277.356-1703.248-277.359-1704-277.359Zm.712-32.379h-45.534v29.175h30.645a14.924,14.924,0,0,1-1.536-1.414c-.556-.692-1.065-.721-1.908-.411a11.921,11.921,0,0,1-12.493-2.056,11.687,11.687,0,0,1-4.2-11.57,11.69,11.69,0,0,1,8.834-9.769,11.674,11.674,0,0,1,12.565,3.648c3.4,3.8,4.025,8.237,2.205,12.991a1.1,1.1,0,0,0,.255,1.411c2.273,2.224,4.505,4.491,6.764,6.731a1.378,1.378,0,0,0,.746.466c1.216.049,2.436.022,3.662.022Zm-45.564-3.267h45.547v-5.966h-45.547Zm13.5,19.066a9.244,9.244,0,0,0,9.2,9.3,9.328,9.328,0,0,0,9.274-9.264,9.245,9.245,0,0,0-9.19-9.208A9.15,9.15,0,0,0-1735.355-293.939Zm17.456,9.377c3.809,3.8,7.556,7.542,11.306,11.279.143.143.307.34.479.36a1.139,1.139,0,0,0,.824-.131.956.956,0,0,0,.127-.819,2.069,2.069,0,0,0-.571-.7q-5.25-5.258-10.507-10.509c-.185-.185-.384-.357-.513-.476Z" transform="translate(1752.084 322.188)" />
    <path class="a" d="M-1615.9-261.056c-1.266,0-2.532.015-3.8,0-1.143-.018-1.886-.653-1.9-1.582s.729-1.6,1.872-1.605q3.952-.032,7.9-.006c1.195.008,1.862.606,1.87,1.583.009,1.022-.668,1.6-1.941,1.612C-1613.234-261.045-1614.568-261.056-1615.9-261.056Z" transform="translate(1657.315 280.118)" />
    <path class="a" d="M-1728.371-261.047c-1.159,0-2.318.016-3.476,0s-1.83-.622-1.82-1.613c.009-.942.639-1.55,1.767-1.565q3.578-.047,7.157,0c1.123.015,1.76.626,1.773,1.564.014.984-.659,1.6-1.821,1.619-1.192.02-2.386,0-3.578,0Z" transform="translate(1738.708 280.109)" />
    <path class="a" d="M-1606.124-239.921c-.818,0-1.636.015-2.453,0a1.685,1.685,0,0,1-1.827-1.543,1.609,1.609,0,0,1,1.736-1.616q2.555-.048,5.111.01c1.134.024,1.746.619,1.74,1.576s-.656,1.541-1.751,1.579c-.442.016-.886,0-1.329,0Z" transform="translate(1649.18 264.748)" />
    <path class="a" d="M-1604.018-218.765c-.751,0-1.5.015-2.252,0a1.587,1.587,0,0,1-1.706-1.525,1.5,1.5,0,0,1,1.617-1.589q2.353-.051,4.708,0a1.478,1.478,0,0,1,1.591,1.5,1.546,1.546,0,0,1-1.6,1.613c-.068,0-.136,0-.2,0Z" transform="translate(1647.417 249.351)" />
    <path class="a" d="M-1729.763-239.908c-.718,0-1.437.019-2.155,0-1.1-.034-1.751-.639-1.752-1.587a1.505,1.505,0,0,1,1.661-1.556q2.255-.063,4.514,0a1.565,1.565,0,0,1,1.62,1.513,1.6,1.6,0,0,1-1.632,1.623C-1728.256-239.877-1729.01-239.909-1729.763-239.908Z" transform="translate(1738.709 264.733)" />
    <path class="a" d="M-1729.855-197.683c-.752,0-1.505.025-2.256,0a1.527,1.527,0,0,1-1.563-1.545,1.491,1.491,0,0,1,1.547-1.55q2.307-.049,4.615,0a1.552,1.552,0,0,1,1.636,1.588,1.581,1.581,0,0,1-1.62,1.512c-.068,0-.137,0-.205,0Z" transform="translate(1738.713 234.027)" />
    <path class="a" d="M-1602.237-197.688c-.715,0-1.432.031-2.145-.006a1.553,1.553,0,0,1-1.528-1.588,1.513,1.513,0,0,1,1.512-1.492q2.2-.058,4.392,0a1.46,1.46,0,0,1,1.447,1.526,1.49,1.49,0,0,1-1.432,1.552C-1600.736-197.653-1601.488-197.689-1602.237-197.688Z" transform="translate(1645.916 234.024)" />
    <path class="a" d="M-1730.576-221.869c.545,0,1.094-.038,1.635.008a1.439,1.439,0,0,1,1.415,1.463,1.477,1.477,0,0,1-1.378,1.609,30.428,30.428,0,0,1-3.374,0,1.5,1.5,0,0,1-1.411-1.582,1.49,1.49,0,0,1,1.478-1.51c.542-.04,1.09-.007,1.636-.007Z" transform="translate(1738.724 249.343)" />
    <path class="a" d="M-1722.215-302.2c-3.043,0-6.086.009-9.128-.008a2.075,2.075,0,0,1-1.268-.236,2.231,2.231,0,0,1-.8-1.475,2.261,2.261,0,0,1,1.024-1.325,2.5,2.5,0,0,1,1.3-.14q8.871-.011,17.744,0c1.6,0,2.415.531,2.43,1.568.016,1.082-.822,1.624-2.48,1.622Q-1717.8-302.211-1722.215-302.2Z" transform="translate(1738.523 309.996)" />
    <path class="a" d="M-1591.666-303.457a1.46,1.46,0,0,1-1.516,1.454,1.547,1.547,0,0,1-1.612-1.487,1.541,1.541,0,0,1,1.641-1.452A1.483,1.483,0,0,1-1591.666-303.457Z" transform="translate(1637.841 309.663)" />
    <path class="a" d="M-1609.98-304.945a1.525,1.525,0,0,1,1.6,1.484,1.526,1.526,0,0,1-1.536,1.45,1.448,1.448,0,0,1-1.573-1.485A1.45,1.45,0,0,1-1609.98-304.945Z" transform="translate(1649.965 309.664)" />
    <path class="a" d="M-1685.182-232.555a14.921,14.921,0,0,1,.273-2.22,3.888,3.888,0,0,1,4.18-2.886,3.87,3.87,0,0,1,3.672,3.393,14.163,14.163,0,0,1,.012,3.367,3.961,3.961,0,0,1-4.365,3.551,4.039,4.039,0,0,1-3.694-4.069c-.009-.376,0-.753,0-1.129Zm5.033.045h.009a2.656,2.656,0,0,0-.025-1.011,5.031,5.031,0,0,0-.792-1c-.341.306-.892.563-.978.929a4.824,4.824,0,0,0,0,2.125c.086.376.625.648.96.967a4.973,4.973,0,0,0,.8-1A2.618,2.618,0,0,0-1680.149-232.51Z" transform="translate(1703.492 260.804)" />
    <path class="a" d="M-1651.1-234.518a10.607,10.607,0,0,1-1.37-.273,1.226,1.226,0,0,1-.93-1.5c.165-.535.651-1.274,1.1-1.359a9.076,9.076,0,0,1,3.242.011,1.743,1.743,0,0,1,1.046,1.288c.115,2.49.12,4.989.061,7.482a1.428,1.428,0,0,1-1.564,1.437,1.575,1.575,0,0,1-1.58-1.668c-.041-1.435-.008-2.872-.006-4.308C-1651.1-233.777-1651.1-234.145-1651.1-234.518Z" transform="translate(1680.448 260.888)" />
  </g>
</svg>