<svg id="writing_1_" data-name="writing (1)" xmlns="http://www.w3.org/2000/svg" width="33.766" height="37.676" viewBox="0 0 33.766 37.676">
  <g id="Сгруппировать_352" data-name="Сгруппировать 352" transform="translate(0)">
    <g id="Сгруппировать_351" data-name="Сгруппировать 351">
      <path id="Контур_460" data-name="Контур 460" d="M124.561,201.472A1.472,1.472,0,0,0,123.089,200H107.931a1.472,1.472,0,0,0,0,2.943h15.159A1.472,1.472,0,0,0,124.561,201.472Z" transform="translate(-100.58 -185.283)" fill="#afe2b9"/>
      <path id="Контур_461" data-name="Контур 461" d="M107.931,280a1.472,1.472,0,1,0,0,2.943h9.206a1.472,1.472,0,1,0,0-2.943Z" transform="translate(-100.58 -259.396)" fill="#afe2b9"/>
      <path id="Контур_462" data-name="Контур 462" d="M37.379,34.733H32.457a2.947,2.947,0,0,1-2.943-2.943V5.887a2.947,2.947,0,0,1,2.943-2.943H50.551a2.947,2.947,0,0,1,2.943,2.943v9.051a1.472,1.472,0,0,0,2.943,0V5.887A5.894,5.894,0,0,0,50.551,0H32.457A5.894,5.894,0,0,0,26.57,5.887v25.9a5.894,5.894,0,0,0,5.887,5.887h4.922a1.472,1.472,0,0,0,0-2.943Z" transform="translate(-26.57)" fill="#afe2b9"/>
      <path id="Контур_463" data-name="Контур 463" d="M259.972,273.315a4.42,4.42,0,0,0-6.243,0l-8.08,8.062a1.472,1.472,0,0,0-.369.614l-1.76,5.793a1.472,1.472,0,0,0,1.8,1.846l5.94-1.645a1.472,1.472,0,0,0,.647-.377l8.063-8.048A4.42,4.42,0,0,0,259.972,273.315ZM250.1,285.251l-2.988.828.875-2.879,5.452-5.44,2.082,2.082Zm7.788-7.773-.285.285-2.081-2.081.284-.284a1.472,1.472,0,0,1,2.082,2.08Z" transform="translate(-227.497 -252.007)" fill="#afe2b9"/>
      <path id="Контур_464" data-name="Контур 464" d="M123.089,120H107.931a1.472,1.472,0,0,0,0,2.943h15.159a1.472,1.472,0,0,0,0-2.943Z" transform="translate(-100.58 -111.17)" fill="#afe2b9"/>
    </g>
  </g>
</svg>
