<svg xmlns="http://www.w3.org/2000/svg" width="55" height="55" viewBox="0 0 49.81 49.81"><defs><style>.a{fill:#4aa85d;}</style></defs><path class="a" d="M45.659,0H4.151A4.156,4.156,0,0,0,0,4.151V45.659A4.156,4.156,0,0,0,4.151,49.81H45.659a4.156,4.156,0,0,0,4.151-4.151V4.151A4.156,4.156,0,0,0,45.659,0Zm2.49,45.659a2.49,2.49,0,0,1-2.49,2.49H4.151a2.49,2.49,0,0,1-2.49-2.49V8.3H48.149V45.659Zm0-39.018H1.66V4.151a2.491,2.491,0,0,1,2.49-2.49H45.659a2.491,2.491,0,0,1,2.49,2.49v2.49Z"/><path class="a" d="M44.327,34.133H43.5a.83.83,0,0,0,0,1.66h.83a.83.83,0,0,0,0-1.66Z" transform="translate(-38.516 -30.812)"/><path class="a" d="M86.479,34.18a.76.76,0,0,0-.631,0,.959.959,0,0,0-.274.174.842.842,0,0,0,0,1.179.959.959,0,0,0,.274.174.783.783,0,0,0,.631,0,.959.959,0,0,0,.274-.174.842.842,0,0,0,0-1.179A.959.959,0,0,0,86.479,34.18Z" transform="translate(-77.031 -30.793)"/><path class="a" d="M120.614,34.147a.83.83,0,0,0-.908.182.959.959,0,0,0-.174.274.782.782,0,0,0,0,.631.959.959,0,0,0,.174.274.842.842,0,0,0,1.179,0,.959.959,0,0,0,.174-.274.7.7,0,0,0,.066-.315A.83.83,0,0,0,120.614,34.147Z" transform="translate(-107.844 -30.768)"/><path class="a" d="M191.19,34.133H162.964a.83.83,0,0,0,0,1.66H191.19a.83.83,0,0,0,0-1.66Z" transform="translate(-146.361 -30.812)"/><path class="a" d="M89.809,147.391a.762.762,0,0,0,.123.092,16.529,16.529,0,0,0,24.086-.007.776.776,0,0,0,.116-.083.811.811,0,0,0,.071-.121,16.5,16.5,0,0,0,0-22.371l0,0a.811.811,0,0,0-.071-.121.745.745,0,0,0-.124-.093,16.528,16.528,0,0,0-24.075,0,.74.74,0,0,0-.124.093.811.811,0,0,0-.071.121,16.5,16.5,0,0,0,0,22.371A.8.8,0,0,0,89.809,147.391Zm16.688,2.928a15.255,15.255,0,0,0,2.827-5.23v0a15.2,15.2,0,0,1,2.933,1.8A14.942,14.942,0,0,1,106.5,150.319Zm6.905-4.634a16.836,16.836,0,0,0-3.608-2.212,29.6,29.6,0,0,0,.869-6.558h6.205A14.86,14.86,0,0,1,113.4,145.685Zm3.467-10.431h-6.205a29.605,29.605,0,0,0-.869-6.558,16.838,16.838,0,0,0,3.608-2.211A14.86,14.86,0,0,1,116.869,135.254Zm-4.612-9.979a15.194,15.194,0,0,1-2.933,1.8,15.256,15.256,0,0,0-2.827-5.233A14.946,14.946,0,0,1,112.257,125.275Zm-9.458-4.017c2.035.533,3.834,2.979,4.969,6.443a17.626,17.626,0,0,1-4.969.946Zm0,9.05a19.2,19.2,0,0,0,5.426-1,28.107,28.107,0,0,1,.78,5.943H102.8Zm0,6.607H109a28.1,28.1,0,0,1-.78,5.941,19.2,19.2,0,0,0-5.426-.995Zm0,6.608a17.628,17.628,0,0,1,4.969.946c-1.134,3.463-2.934,5.91-4.969,6.443ZM91.68,146.889a15.2,15.2,0,0,1,2.933-1.8v0a15.255,15.255,0,0,0,2.827,5.23A14.944,14.944,0,0,1,91.68,146.889Zm9.458,4.022c-2.035-.533-3.834-2.979-4.969-6.443a17.627,17.627,0,0,1,4.969-.946Zm0-9.05a19.2,19.2,0,0,0-5.426,1,28.108,28.108,0,0,1-.78-5.943h6.205Zm0-6.607H94.933a28.105,28.105,0,0,1,.78-5.941,19.2,19.2,0,0,0,5.426.995Zm0-14v7.389a17.627,17.627,0,0,1-4.969-.946C97.3,124.237,99.1,121.79,101.138,121.257Zm-3.7.588a15.255,15.255,0,0,0-2.827,5.235v0a15.194,15.194,0,0,1-2.933-1.8A14.944,14.944,0,0,1,97.44,121.845Zm-6.905,4.639a16.835,16.835,0,0,0,3.608,2.212,29.6,29.6,0,0,0-.869,6.558H87.068A14.86,14.86,0,0,1,90.534,126.484Zm2.739,10.431a29.605,29.605,0,0,0,.869,6.558,16.838,16.838,0,0,0-3.608,2.211,14.86,14.86,0,0,1-3.467-8.769h6.205Z" transform="translate(-77.063 -107.859)"/></svg>