<svg xmlns="http://www.w3.org/2000/svg" width="96.678" height="131.494" viewBox="0 0 96.678 131.494">
  <g id="Сгруппировать_336" data-name="Сгруппировать 336" transform="translate(-883.308 -42.095)">
    <g id="Сгруппировать_298" data-name="Сгруппировать 298" transform="translate(882.367 140.422)">
      <path id="Контур_770" data-name="Контур 770" d="M57.419.72A5.354,5.354,0,0,1,55.394.34L55.082.213V-3.793l.8.609a2.131,2.131,0,0,0,1.332.452c.394,0,1.442,0,1.442-2.383V-13.1h3.83V-5a6.223,6.223,0,0,1-1.3,4.2A4.76,4.76,0,0,1,57.419.72ZM56.082-.475a4.491,4.491,0,0,0,1.337.195,3.761,3.761,0,0,0,3.02-1.173A5.277,5.277,0,0,0,61.489-5v-7.1h-1.83v6.988a4.322,4.322,0,0,1-.571,2.441,2.146,2.146,0,0,1-1.871.941,3.15,3.15,0,0,1-1.135-.206ZM48.586.72a6.374,6.374,0,0,1-4.771-1.915,6.837,6.837,0,0,1-1.846-4.94,7.291,7.291,0,0,1,1.867-5.176,6.5,6.5,0,0,1,4.953-2,6.227,6.227,0,0,1,4.728,1.924,7.024,7.024,0,0,1,1.8,5,7.182,7.182,0,0,1-1.864,5.134A6.435,6.435,0,0,1,48.586.72Zm.2-13.034a5.469,5.469,0,0,0-4.223,1.688,6.327,6.327,0,0,0-1.6,4.492A5.8,5.8,0,0,0,44.533-1.89,5.341,5.341,0,0,0,48.586-.28a5.4,5.4,0,0,0,4.142-1.664,6.218,6.218,0,0,0,1.59-4.446A6.06,6.06,0,0,0,52.788-10.7,5.2,5.2,0,0,0,48.788-12.314ZM23.651.72A5.489,5.489,0,0,1,19.435-.827a6.432,6.432,0,0,1-1.416-4.5V-13.1h3.848v7.813c0,2.268,1.01,2.559,1.891,2.559.86,0,1.847-.279,1.847-2.453V-13.1h3.839v7.646a6.546,6.546,0,0,1-1.457,4.6A5.664,5.664,0,0,1,23.651.72ZM19.019-12.1v6.777a5.5,5.5,0,0,0,1.15,3.82A4.546,4.546,0,0,0,23.651-.28a4.721,4.721,0,0,0,3.6-1.26,5.609,5.609,0,0,0,1.189-3.917V-12.1H26.6v6.918a4,4,0,0,1-.7,2.526,2.6,2.6,0,0,1-2.151.927,2.619,2.619,0,0,1-2.187-.957,4.172,4.172,0,0,1-.7-2.6V-12.1ZM94.024.5H90.177V-9.792H86.6V-13.1h11.02v3.312H94.024Zm-2.848-1h1.848V-10.792h3.595V-12.1H87.6v1.312h3.577ZM88.661.5H84.493l-.9-2.8H79.846L78.958.5H71.837l-.9-2.8H67.189L66.3.5H62.145L67.1-13.1h4.069L75.41-1.171,79.753-13.1h4.069Zm-3.437-1h2.02L83.117-12.1H80.454L76.23-.5h2l.888-2.8h5.214ZM72.567-.5h2.02L70.461-12.1H67.8L63.573-.5h2l.888-2.8h5.214Zm-29.4,1H38.715L36.609-2.985c-.141-.238-.277-.449-.4-.632a3.182,3.182,0,0,0-.352-.429,1.137,1.137,0,0,0-.3-.221.6.6,0,0,0-.268-.059h-.265V.5H31.185V-13.1h5c4.205,0,5.088,2.136,5.088,3.928a4.063,4.063,0,0,1-.232,1.388,3.9,3.9,0,0,1-.655,1.154,4.137,4.137,0,0,1-1.014.88q-.168.1-.349.2a4.632,4.632,0,0,1,.34.33,6.967,6.967,0,0,1,.507.611c.156.211.3.42.428.622Zm-3.892-1h2.066l-1.89-2.957c-.117-.183-.248-.373-.389-.565a5.968,5.968,0,0,0-.434-.523,3.419,3.419,0,0,0-.444-.4,1.318,1.318,0,0,0-.394-.208l-.351-.11v-.779l.362-.1A4.122,4.122,0,0,0,38.843-6.6a3.14,3.14,0,0,0,.77-.667,2.9,2.9,0,0,0,.487-.859,3.069,3.069,0,0,0,.172-1.047c0-1.257-.424-2.928-4.088-2.928h-4V-.5h1.839V-5.325h1.265A1.594,1.594,0,0,1,36-5.164a2.13,2.13,0,0,1,.564.412,4.178,4.178,0,0,1,.465.564c.141.2.289.434.441.689ZM16.3.5H12.5V-6.629L10.042.5H7.012L4.5-6.591V.5H.941V-13.1H5.955L8.647-5.3l.025.075L8.7-5.312,11.395-13.1H16.3Zm-2.8-1h1.8V-12.1h-3.2L9.648-4.987A17.729,17.729,0,0,0,9.162-3.22l-.088.389h-.88l-.066-.423A10.066,10.066,0,0,0,7.7-4.971L5.242-12.1h-3.3V-.5H3.5V-6.97c0-.923-.038-2.013-.113-3.239l-.033-.531H4.377l.078.405A15.128,15.128,0,0,0,4.83-8.65L7.719-.5H9.329l2.837-8.232a12.93,12.93,0,0,0,.377-1.6l.077-.407h1.021L13.6-10.2c-.069.968-.1,1.864-.1,2.663Zm35.14-1.232a3.307,3.307,0,0,1-2.692-1.276,5.087,5.087,0,0,1-.99-3.276,5.176,5.176,0,0,1,.985-3.275,3.348,3.348,0,0,1,2.766-1.312,3.211,3.211,0,0,1,2.682,1.286,5.414,5.414,0,0,1,.938,3.354,5.034,5.034,0,0,1-.973,3.255A3.335,3.335,0,0,1,48.639-1.732Zm.07-8.139a2.362,2.362,0,0,0-1.98.929,4.212,4.212,0,0,0-.772,2.658,4.129,4.129,0,0,0,.768,2.648,2.32,2.32,0,0,0,1.914.9,2.348,2.348,0,0,0,1.941-.875,4.081,4.081,0,0,0,.749-2.624A4.464,4.464,0,0,0,50.6-8.977,2.229,2.229,0,0,0,48.709-9.871ZM84-4.483H79.4l1.581-4.924a4.331,4.331,0,0,0,.2-.985l.037-.46H82.2l.042.454a5.054,5.054,0,0,0,.19,1.03Zm-3.225-1h1.855L81.7-8.38Zm-9.432,1h-4.6l1.581-4.924a4.331,4.331,0,0,0,.2-.985l.037-.46h.988l.042.454a5.054,5.054,0,0,0,.19,1.03Zm-3.225-1h1.855l-.926-2.9ZM35.754-6.47h-1.73v-4.507h1.783c2.156,0,2.478,1.349,2.478,2.152a2.25,2.25,0,0,1-.718,1.689A2.531,2.531,0,0,1,35.754-6.47Zm-.73-1h.73a1.548,1.548,0,0,0,1.123-.389,1.268,1.268,0,0,0,.407-.965c0-.6-.179-1.152-1.478-1.152h-.783Z" transform="translate(0 19)" fill="#fff"/>
      <path id="Контур_771" data-name="Контур 771" d="M29.3.634A3.539,3.539,0,0,1,26.585-.373a4.114,4.114,0,0,1-.917-2.881V-8.2h2.74v4.969c0,1.369.625,1.369.961,1.369s.934,0,.934-1.3V-8.2h2.735v4.867C33.038-.738,31.747.634,29.3.634ZM26.668-7.2v3.947a3.177,3.177,0,0,0,.651,2.2A2.562,2.562,0,0,0,29.3-.366a2.668,2.668,0,0,0,2.059-.708,3.247,3.247,0,0,0,.674-2.261V-7.2H31.3v4.033c0,2.005-1.212,2.3-1.934,2.3s-1.961-.308-1.961-2.369V-7.2ZM23.869.634a1.479,1.479,0,0,1-1.037-.39,1.331,1.331,0,0,1-.44-1,1.3,1.3,0,0,1,.461-1.013A1.552,1.552,0,0,1,23.9-2.138a1.51,1.51,0,0,1,1.047.379,1.315,1.315,0,0,1,.442,1,1.32,1.32,0,0,1-.45,1.016A1.553,1.553,0,0,1,23.869.634ZM23.9-1.138a.554.554,0,0,0-.391.126.3.3,0,0,0-.113.255.33.33,0,0,0,.118.266.489.489,0,0,0,.359.125.582.582,0,0,0,.4-.124.321.321,0,0,0,.113-.268.316.316,0,0,0-.112-.26A.516.516,0,0,0,23.9-1.138ZM11.956.634A4.083,4.083,0,0,1,8.9-.595,4.366,4.366,0,0,1,7.718-3.749a4.644,4.644,0,0,1,1.193-3.3A4.16,4.16,0,0,1,12.08-8.331,3.992,3.992,0,0,1,15.11-7.094,4.48,4.48,0,0,1,16.264-3.9,4.577,4.577,0,0,1,15.071-.633,4.12,4.12,0,0,1,11.956.634Zm.124-7.965a3.158,3.158,0,0,0-2.439.97,3.631,3.631,0,0,0-.923,2.612,3.357,3.357,0,0,0,.9,2.459,3.079,3.079,0,0,0,2.337.925,3.116,3.116,0,0,0,2.39-.956A3.566,3.566,0,0,0,15.264-3.9a3.471,3.471,0,0,0-.882-2.5A2.991,2.991,0,0,0,12.08-7.331ZM4.4.634A4.552,4.552,0,0,1,1.123-.534,4.237,4.237,0,0,1-.1-3.728,4.455,4.455,0,0,1,1.219-7.045,4.766,4.766,0,0,1,4.684-8.331a6.852,6.852,0,0,1,2.329.368l.33.119V-5l-.75-.434a3.823,3.823,0,0,0-1.93-.448,1.846,1.846,0,0,0-1.4.549,2.079,2.079,0,0,0-.538,1.524A2.12,2.12,0,0,0,3.2-2.313a1.657,1.657,0,0,0,1.282.492,2.627,2.627,0,0,0,.488-.04V-2.5H3.426V-4.888H7.7V-.227l-.25.144A6.056,6.056,0,0,1,4.4.634Zm.285-7.965a3.755,3.755,0,0,0-2.766,1A3.446,3.446,0,0,0,.9-3.728a3.238,3.238,0,0,0,.918,2.473A3.547,3.547,0,0,0,4.4-.366,5.347,5.347,0,0,0,6.7-.818V-3.888H4.426V-3.5H5.968v2.317l-.282.137a2.744,2.744,0,0,1-1.207.227,2.638,2.638,0,0,1-2.011-.808,3.072,3.072,0,0,1-.745-2.179,3.068,3.068,0,0,1,.82-2.22,2.833,2.833,0,0,1,2.118-.853,5.361,5.361,0,0,1,1.681.249v-.5A6.256,6.256,0,0,0,4.684-7.331ZM40.257.5h-7.2V-1.165L36.5-5.79H33.338V-8.2h6.908v1.634l-3.381,4.66h3.392Zm-6.2-1h5.2V-.907H34.9l4.342-5.985V-7.2H34.338v.413H38.5L34.053-.833ZM21.159.5h-2.68L15.517-8.2h2.94l1.407,4.7,1.4-4.7h2.889Zm-1.964-1h1.251l2.309-6.7h-.742L20.524-2.22a3.868,3.868,0,0,0-.148.7l-.047.448h-.944l-.037-.46a3.367,3.367,0,0,0-.137-.666l-1.5-5h-.8ZM11.988-.864a2.207,2.207,0,0,1-1.8-.852A3.3,3.3,0,0,1,9.544-3.84a3.351,3.351,0,0,1,.644-2.121,2.232,2.232,0,0,1,1.844-.876,2.175,2.175,0,0,1,1.793.862,3.5,3.5,0,0,1,.613,2.168A3.263,3.263,0,0,1,13.8-1.7,2.224,2.224,0,0,1,11.988-.864Zm.043-4.974a1.245,1.245,0,0,0-1.057.493,2.388,2.388,0,0,0-.431,1.5,2.338,2.338,0,0,0,.426,1.5,1.219,1.219,0,0,0,1.018.48,1.236,1.236,0,0,0,1.035-.463,2.31,2.31,0,0,0,.414-1.481,2.545,2.545,0,0,0-.407-1.56A1.164,1.164,0,0,0,12.031-5.838Z" transform="translate(56.724 32.533)" fill="#fff"/>
    </g>
    <path id="Контур_769" data-name="Контур 769" d="M616.216,2773.98a45.7,45.7,0,1,1-17.842,3.6A45.546,45.546,0,0,1,616.216,2773.98Zm0,90.675a44.839,44.839,0,1,0-31.7-13.133A44.543,44.543,0,0,0,616.216,2864.655Zm0-87.9a42.933,42.933,0,1,1-16.763,3.385A42.8,42.8,0,0,1,616.216,2776.751Zm0,85.132a42.066,42.066,0,1,0-29.745-12.321A41.791,41.791,0,0,0,616.216,2861.884Zm0-77.165a35.07,35.07,0,0,1,35.1,35.1c0,.99-.043,2-.129,2.995s-.214,1.988-.385,2.978a1.878,1.878,0,0,1-1.854,1.566,1.9,1.9,0,0,1-.32-.027,1.883,1.883,0,0,1-1.539-2.173c.151-.874.266-1.767.342-2.657s.114-1.787.114-2.681a31.328,31.328,0,0,0-31.328-31.328c-.905,0-1.824.04-2.732.119s-1.826.2-2.709.357a1.915,1.915,0,0,1-.326.028,1.885,1.885,0,0,1-.324-3.741c1-.176,2.018-.311,3.034-.4S615.2,2784.719,616.216,2784.719Zm32.73,41.638a.88.88,0,0,0,.869-.735c.166-.963.292-1.937.375-2.894s.125-1.948.125-2.909a34.1,34.1,0,0,0-34.1-34.1c-.985,0-1.984.043-2.97.129s-1.978.218-2.948.389a.885.885,0,0,0,.151,1.757.9.9,0,0,0,.153-.013c.91-.161,1.851-.285,2.795-.368s1.885-.123,2.819-.123a32.3,32.3,0,0,1,32.328,32.328c0,.923-.04,1.854-.118,2.767s-.2,1.84-.353,2.741a.885.885,0,0,0,.874,1.031Zm-47.611-37.3h0a1.719,1.719,0,0,1,.7.15l14.556,6.462a1.733,1.733,0,0,1,1.029,1.582v3.262c0,.01,0,.021,0,.031s0,.021,0,.031a1.733,1.733,0,0,1-1.731,1.731c-.35,0-.423.4-.423.731v4.363h-3.462v-4.363a.731.731,0,1,0-1.462,0v4.363h-3.462v-4.363a.731.731,0,1,0-1.462,0v4.363h-.858a5.063,5.063,0,0,0-1.916.372l-.688.28v-5.015a.731.731,0,1,0-1.462,0v6.376l-.093.131a5.07,5.07,0,0,0-.95,2.964v3.07a1.38,1.38,0,0,0,.02.237l.1.585H589.118a1.733,1.733,0,0,1-1.731-1.731c0-.025,0-.051,0-.076s0-.051,0-.076v-11.48c0-.172-.039-.731-.546-.731a1.733,1.733,0,0,1-1.731-1.731c0-.01,0-.021,0-.031s0-.021,0-.031v-3.262a1.732,1.732,0,0,1,1.026-1.581l14.495-6.463A1.719,1.719,0,0,1,601.335,2789.058Zm15.288,11.445v-3.251a.732.732,0,0,0-.435-.668l-14.556-6.462a.731.731,0,0,0-.594,0l-14.495,6.463a.732.732,0,0,0-.433.667v3.251c0,.015,0,.029,0,.042s0,.027,0,.041a.732.732,0,0,0,.731.721,1.575,1.575,0,0,1,1.546,1.731v11.48c0,.005,0,.012,0,.02l0,.057,0,.056c0,.007,0,.014,0,.021a.732.732,0,0,0,.731.729h9.536v-2.893a6.062,6.062,0,0,1,1.043-3.411v-6.06a1.731,1.731,0,1,1,3.462,0v3.576a6.066,6.066,0,0,1,1.462-.211v-3.365a1.731,1.731,0,1,1,3.462,0v3.363h1.462v-3.363a1.731,1.731,0,1,1,3.462,0v3.363h1.462v-3.363c0-1.052.559-1.731,1.423-1.731a.732.732,0,0,0,.731-.721c0-.012,0-.024,0-.035v-.011C616.622,2800.527,616.622,2800.514,616.623,2800.5Zm-15.287-8.913.2.09,13.622,6.048v2.056H587.571v-2.057l.3-.132Zm12.825,6.788-12.824-5.694-12.765,5.692v.408h25.589Zm-13.439-5.012a1.746,1.746,0,1,1-1.745,1.746A1.747,1.747,0,0,1,600.722,2793.365Zm0,2.491a.746.746,0,1,0-.745-.746A.746.746,0,0,0,600.722,2795.857Zm-9.142,5.45a1.733,1.733,0,0,1,1.731,1.731v10.9h-3.462v-10.9A1.733,1.733,0,0,1,591.58,2801.306Zm.731,11.633v-9.9a.731.731,0,1,0-1.462,0v9.9Zm4.193-11.633a1.733,1.733,0,0,1,1.731,1.731v10.9h-3.462v-10.9A1.733,1.733,0,0,1,596.5,2801.306Zm.731,11.633v-9.9a.731.731,0,1,0-1.462,0v9.9Zm7.528-4.653h24.316a4.227,4.227,0,0,1,4.222,4.222v3.321l-.2.15-13.659,10.16a4.2,4.2,0,0,1-5.039,0l-13.86-10.31v-3.321A4.227,4.227,0,0,1,604.763,2808.287Zm27.538,7.041v-2.819a3.226,3.226,0,0,0-3.222-3.222H604.763a3.226,3.226,0,0,0-3.222,3.222v2.819L615,2825.338a3.2,3.2,0,0,0,3.846,0Zm-27.538-4.56h24.316a1.743,1.743,0,0,1,1.741,1.741v2.075l-12.86,9.565a1.733,1.733,0,0,1-2.078,0l-12.86-9.565v-2.075A1.742,1.742,0,0,1,604.763,2810.768Zm25.057,3.313v-1.572a.741.741,0,0,0-.741-.741H604.763a.741.741,0,0,0-.74.741v1.572l12.457,9.265a.734.734,0,0,0,.884,0Zm-46.278-2.108a1.894,1.894,0,0,1,.334.03,1.88,1.88,0,0,1,1.519,2.182c-.169.928-.3,1.872-.382,2.808-.081.9-.122,1.847-.122,2.825a31.327,31.327,0,0,0,31.327,31.327,31.317,31.317,0,0,0,12.818-2.737,1.881,1.881,0,1,1,1.534,3.435,35.078,35.078,0,0,1-49.451-32.025c0-1.014.05-2.078.148-3.164.095-1.046.238-2.1.427-3.134A1.877,1.877,0,0,1,583.541,2811.973Zm32.675,40.171a32.3,32.3,0,0,1-32.327-32.327c0-1.007.043-1.988.126-2.915.087-.965.22-1.94.394-2.9a.88.88,0,0,0-.711-1.02.878.878,0,0,0-1.022.71c-.183,1.006-.323,2.03-.415,3.046-.1,1.056-.144,2.09-.144,3.074a34.089,34.089,0,0,0,48.042,31.112.881.881,0,1,0-.717-1.609,32.312,32.312,0,0,1-13.227,2.824Zm-15.675-34.468,3.481,2.59v10.6a.741.741,0,0,0,.74.741h21.975l-1.542.928c-.122.073-.248.152-.4.248a11.751,11.751,0,0,0-1.358,1.023,6.761,6.761,0,0,0-.969,1.053l-.168.228h-17.54a4.227,4.227,0,0,1-4.222-4.222Zm2.481,3.092-1.481-1.1v11.2a3.225,3.225,0,0,0,3.222,3.222H621.8a7.765,7.765,0,0,1,.978-1.032q.26-.229.542-.448H604.763a1.742,1.742,0,0,1-1.74-1.741Zm-14.436-2.906h11.181l-.1.581a1.415,1.415,0,0,0-.019.228v2.654H588.586a1.731,1.731,0,0,1,0-3.462Zm10.068,1H588.586a.731.731,0,0,0,0,1.462h10.068Zm35.775-.631a7.848,7.848,0,0,1,0,15.7,16.381,16.381,0,0,0-4.885.693,10.146,10.146,0,0,0-3.682,1.952,3.028,3.028,0,0,0-.767,1.039,3.116,3.116,0,0,0-.272,1.271v1.774a.209.209,0,0,0,.207.207h18.8a.2.2,0,0,0,.145-.06.207.207,0,0,0,.062-.147v-1.774a3.116,3.116,0,0,0-.272-1.271,3.028,3.028,0,0,0-.767-1.038,7.688,7.688,0,0,0-1.017-.75,10.038,10.038,0,0,0-1.181-.627l-.059-.026a1.71,1.71,0,0,1,.7-3.272h0a1.7,1.7,0,0,1,.692.147,13.648,13.648,0,0,1,1.68.889,11.179,11.179,0,0,1,1.444,1.069,6.492,6.492,0,0,1,2.2,4.88v1.774a3.632,3.632,0,0,1-3.629,3.629h-18.8a3.632,3.632,0,0,1-3.629-3.629v-1.774a6.492,6.492,0,0,1,2.2-4.879,12.417,12.417,0,0,1,2.863-1.857,15.49,15.49,0,0,1,2.126-.822,7.84,7.84,0,0,1-1.209-1.783,7.851,7.851,0,0,1,7.043-11.309Zm9.4,23.632h-18.8a1.209,1.209,0,0,1-1.207-1.207v-1.774a4.124,4.124,0,0,1,.361-1.682,4.023,4.023,0,0,1,1.018-1.379,11.164,11.164,0,0,1,4.044-2.156,17.381,17.381,0,0,1,5.183-.738,6.87,6.87,0,1,0-4.54-1.727l.709.628-.919.23a14.9,14.9,0,0,0-2.78.989,11.5,11.5,0,0,0-2.633,1.706,5.492,5.492,0,0,0-1.864,4.128v1.774a2.632,2.632,0,0,0,2.629,2.629h18.8a2.632,2.632,0,0,0,2.629-2.629v-1.774a5.49,5.49,0,0,0-1.864-4.128,10.144,10.144,0,0,0-1.314-.973,12.683,12.683,0,0,0-1.556-.823.714.714,0,0,0-.542-.013.71.71,0,0,0-.052,1.3l.019.009a11.085,11.085,0,0,1,1.361.718,8.691,8.691,0,0,1,1.148.847,4.021,4.021,0,0,1,1.018,1.378,4.124,4.124,0,0,1,.36,1.682v1.774a1.208,1.208,0,0,1-1.207,1.207Zm-9.4-21.211a5.433,5.433,0,1,1-3.836,1.592A5.39,5.39,0,0,1,634.429,2820.652Zm0,9.855a4.433,4.433,0,1,0-3.129-1.3A4.394,4.394,0,0,0,634.429,2830.507Z" transform="translate(314.65 -2731.885)" fill="#fff"/>
  </g>
</svg>
